
<!-- Generator: visioncortex VTracer 0.6.4 -->
<svg version="1.1" xmlns="http://www.w3.org/2000/svg" viewBox="0 0 308 211" preserveAspectRatio="xMidYMid meet">
<path d="M0 0 C101.64 0 203.28 0 308 0 C308 69.63 308 139.26 308 211 C206.36 211 104.72 211 0 211 C0 141.37 0 71.74 0 0 Z " fill="#FDFDFD" transform="translate(0,0)"/>
<path d="M0 0 C11.376 7.478 17.391 17.24 20.27 30.488 C21.172 39.931 20.093 48.463 17.27 57.488 C16.61 57.488 15.95 57.488 15.27 57.488 C15.187 58.025 15.105 58.561 15.02 59.113 C12.32 67.663 5.443 71.161 -1.98 75.301 C-10.563 79.007 -18.209 77.44 -26.73 74.488 C-28.432 73.931 -28.432 73.931 -30.168 73.363 C-41.998 68.034 -51.502 56.143 -59.457 46.273 C-64.982 39.505 -70.951 33.182 -77.105 26.988 C-77.618 26.471 -78.13 25.955 -78.657 25.422 C-80.925 23.165 -83.058 21.27 -85.73 19.488 C-85.73 18.828 -85.73 18.168 -85.73 17.488 C-87.38 16.828 -89.03 16.168 -90.73 15.488 C-90.835 21.246 -90.471 26.778 -89.73 32.488 C-90.394 32.901 -91.058 33.313 -91.742 33.738 C-100.395 39.397 -104.037 45.074 -107.641 54.605 C-109.53 57.87 -112.162 58.331 -115.676 59.305 C-116.725 59.551 -117.774 59.797 -118.855 60.051 C-122.906 60.959 -122.906 60.959 -126.73 62.488 C-127.256 67.48 -127.33 70.375 -124.105 74.363 C-117.716 80.932 -108.105 80.504 -99.473 80.778 C-79.422 81.447 -79.422 81.447 -74 85.914 C-69.055 91.497 -69.321 97.523 -69.441 104.594 C-69.817 109.649 -70.898 114.225 -73.73 118.488 C-75.215 118.983 -75.215 118.983 -76.73 119.488 C-78.633 118.125 -78.633 118.125 -80.668 116.176 C-83.24 113.733 -85.474 111.924 -88.73 110.488 C-88.73 109.828 -88.73 109.168 -88.73 108.488 C-90.38 108.158 -92.03 107.828 -93.73 107.488 C-93.73 106.828 -93.73 106.168 -93.73 105.488 C-94.72 105.158 -95.71 104.828 -96.73 104.488 C-96.73 103.498 -96.73 102.508 -96.73 101.488 C-97.566 101.89 -97.566 101.89 -98.418 102.301 C-99.181 102.363 -99.944 102.425 -100.73 102.488 C-102.442 100.867 -104.103 99.193 -105.73 97.488 C-106.803 96.952 -107.875 96.416 -108.98 95.863 C-109.888 95.41 -110.795 94.956 -111.73 94.488 C-112.06 93.498 -112.39 92.508 -112.73 91.488 C-114.746 90.755 -114.746 90.755 -116.73 90.488 C-116.73 89.828 -116.73 89.168 -116.73 88.488 C-118.043 88.158 -118.043 88.158 -119.383 87.82 C-123.36 86.238 -125.353 84.266 -128.293 81.176 C-129.656 79.758 -129.656 79.758 -131.047 78.312 C-131.932 77.381 -132.818 76.449 -133.73 75.488 C-134.647 74.608 -135.564 73.727 -136.508 72.82 C-138.73 70.488 -138.73 70.488 -139.73 67.488 C-140.39 67.488 -141.05 67.488 -141.73 67.488 C-150.423 53.353 -156.789 39.632 -154.73 22.488 C-152.546 13.906 -146.048 6.307 -138.73 1.488 C-125.27 -4.737 -108.46 -4.168 -94.589 0.683 C-90.319 2.533 -86.833 5.388 -83.281 8.367 C-80.867 10.375 -78.416 11.879 -75.73 13.488 C-74.462 14.85 -74.462 14.85 -73.168 16.238 C-72.364 16.981 -71.559 17.723 -70.73 18.488 C-66.876 18.274 -65.179 16.163 -62.668 13.426 C-57.778 8.392 -52.622 4.294 -46.73 0.488 C-45.936 -0.043 -45.142 -0.574 -44.324 -1.121 C-32.274 -7.909 -11.888 -6.582 0 0 Z M-83.043 102.051 C-85.097 104.5 -85.097 104.5 -84.605 108.176 C-84.172 109.815 -84.172 109.815 -83.73 111.488 C-80.612 113.048 -78.068 112.144 -74.73 111.488 C-72.441 109.607 -72.441 109.607 -72.355 106.551 C-72.432 103.44 -72.432 103.44 -74.48 101.613 C-77.837 99.935 -79.932 99.949 -83.043 102.051 Z " fill="#8B0F12" transform="translate(212.73046875,20.51171875)"/>
<path d="M0 0 C11.669 0.741 21.054 5.259 29 14 C29.496 14.541 29.993 15.083 30.504 15.641 C37.736 24.269 40.408 36.541 40.215 47.641 C39.16 59.22 35.338 70.662 27 79 C16.694 87.051 8.117 89.068 -5 88 C-9.583 87.025 -13.106 85.596 -17 83 C-16.977 83.843 -16.954 84.686 -16.93 85.555 C-16.912 86.65 -16.894 87.746 -16.875 88.875 C-16.852 89.966 -16.829 91.056 -16.805 92.18 C-17 95 -17 95 -19 97 C-19.351 99.952 -19.351 99.952 -19.363 103.466 C-19.378 104.129 -19.393 104.793 -19.408 105.477 C-19.44 106.92 -19.467 108.363 -19.49 109.807 C-19.528 112.094 -19.578 114.38 -19.632 116.667 C-19.782 123.17 -19.908 129.674 -20.029 136.177 C-20.104 140.155 -20.192 144.131 -20.289 148.108 C-20.323 149.621 -20.351 151.135 -20.374 152.648 C-20.405 154.772 -20.455 156.894 -20.508 159.017 C-20.53 160.223 -20.553 161.429 -20.577 162.672 C-21.05 166.395 -22.039 168.813 -24 172 C-28.324 175.222 -31.6 176.636 -37.008 176.32 C-40.503 175.758 -42.909 174.793 -46 173 C-48.09 169.101 -48.269 165.658 -48.319 161.282 C-48.329 160.628 -48.339 159.974 -48.349 159.299 C-48.38 157.151 -48.397 155.004 -48.414 152.855 C-48.433 151.36 -48.452 149.865 -48.473 148.37 C-48.524 144.446 -48.564 140.522 -48.601 136.598 C-48.641 132.589 -48.692 128.581 -48.742 124.572 C-48.839 116.715 -48.923 108.858 -49 101 C-50.027 104.08 -49.984 105.806 -49.812 109 C-49.743 115.507 -51.091 122.613 -55.449 127.688 C-57 129 -57 129 -60 131 C-60.602 133.377 -60.602 133.377 -60.73 136.164 C-60.811 137.204 -60.892 138.245 -60.975 139.316 C-61.08 140.954 -61.08 140.954 -61.188 142.625 C-61.269 143.694 -61.351 144.762 -61.436 145.863 C-61.855 151.59 -62.09 157.259 -62 163 C-59.36 162.67 -56.72 162.34 -54 162 C-53.505 164.475 -53.505 164.475 -53 167 C-57.978 171.328 -61.183 172.556 -67.766 172.566 C-70 172 -70 172 -71.617 170.461 C-73.537 167.044 -73.411 163.873 -73.363 160.059 C-73.364 158.912 -73.364 158.912 -73.365 157.743 C-73.362 156.132 -73.353 154.521 -73.336 152.909 C-73.313 150.443 -73.316 147.977 -73.322 145.51 C-73.317 143.943 -73.31 142.376 -73.301 140.809 C-73.302 140.071 -73.303 139.333 -73.304 138.574 C-73.252 134.844 -73.122 133.183 -71 130 C-70.34 130 -69.68 130 -69 130 C-69 128.35 -69 126.7 -69 125 C-70.268 124.629 -70.268 124.629 -71.562 124.25 C-75.384 122.86 -78.519 121.089 -82 119 C-82 118.34 -82 117.68 -82 117 C-83.32 116.67 -84.64 116.34 -86 116 C-86 115.34 -86 114.68 -86 114 C-86.949 113.691 -87.898 113.381 -88.875 113.062 C-92 112 -92 112 -94 111 C-94 110.34 -94 109.68 -94 109 C-94.969 108.732 -95.939 108.464 -96.938 108.188 C-97.948 107.796 -98.959 107.404 -100 107 C-100.33 106.01 -100.66 105.02 -101 104 C-101.578 103.711 -102.155 103.422 -102.75 103.125 C-105 102 -105 102 -107.277 99.719 C-110.847 96.154 -114.785 93.171 -118.77 90.086 C-119.506 89.398 -120.242 88.709 -121 88 C-121 87.01 -121 86.02 -121 85 C-118.5 86.375 -118.5 86.375 -116 88 C-116 88.66 -116 89.32 -116 90 C-115.422 90.082 -114.845 90.165 -114.25 90.25 C-111.372 91.209 -110.095 92.84 -108 95 C-107.34 95.33 -106.68 95.66 -106 96 C-104 97 -104 97 -102 99.125 C-99.971 101.456 -99.971 101.456 -96 101 C-95.67 101.99 -95.34 102.98 -95 104 C-94.01 104.495 -94.01 104.495 -93 105 C-93 105.66 -93 106.32 -93 107 C-91.35 107.33 -89.7 107.66 -88 108 C-88 108.66 -88 109.32 -88 110 C-87.443 110.082 -86.886 110.165 -86.312 110.25 C-82.589 111.457 -79.997 113.966 -77.312 116.75 C-76.061 118.23 -76.061 118.23 -74 118 C-69.752 109.94 -68.887 102.025 -70 93 C-72.263 87.533 -72.263 87.533 -76.898 84.184 C-83.265 82.265 -89.335 81.693 -95.938 81.438 C-117.509 80.561 -117.509 80.561 -124.574 73.656 C-127.208 70.597 -127.242 67.941 -127.523 63.973 C-127 62 -127 62 -124.922 60.316 C-121.544 58.794 -118.542 58.365 -114.875 57.875 C-110.055 57.125 -110.055 57.125 -106.598 54.09 C-105.898 51.808 -105.898 51.808 -105.477 49.406 C-104.102 42.464 -99.348 38.044 -93.77 34.129 C-92 33 -92 33 -90 32 C-90.084 31.024 -90.168 30.048 -90.254 29.043 C-90.407 27.135 -90.407 27.135 -90.562 25.188 C-90.719 23.291 -90.719 23.291 -90.879 21.355 C-91 18 -91 18 -90 15 C-86.333 16.153 -84.209 17.662 -81.559 20.397 C-79.7 22.309 -77.796 24.172 -75.891 26.039 C-68.541 33.287 -61.318 40.438 -54.926 48.555 C-44.659 61.591 -32.986 73.178 -16 76 C-5.861 76.78 2.615 72.488 10.25 66.125 C12.6 63.271 14.247 60.255 16 57 C16.66 57 17.32 57 18 57 C21.061 42.321 22.016 27.549 14.352 14.109 C11.394 9.692 8.446 6.004 4 3 C3.237 2.422 2.474 1.845 1.688 1.25 C1.131 0.837 0.574 0.425 0 0 Z M-127 81 C-126.34 81.66 -125.68 82.32 -125 83 C-125.66 83 -126.32 83 -127 83 C-127 82.34 -127 81.68 -127 81 Z M-76.938 100.25 C-74 101 -74 101 -72 103 C-71.75 106 -71.75 106 -72 109 C-75.006 112.006 -77.824 111.596 -82 112 C-84 109 -84 109 -83.812 105.438 C-82.755 100.962 -81.574 99.872 -76.938 100.25 Z " fill="#FDFCFC" transform="translate(212,21)"/>
<path d="M0 0 C0.701 0.014 1.403 0.028 2.125 0.043 C3.177 0.053 3.177 0.053 4.25 0.062 C6.125 0.23 6.125 0.23 8.125 1.23 C7.676 12.932 7.228 24.617 6.312 36.293 C6.037 40.608 6.035 44.909 6.125 49.23 C6.641 48.364 7.156 47.498 7.688 46.605 C10.765 41.978 14.815 38 20.125 36.23 C23.537 35.771 26.025 35.591 29.066 37.359 C33.982 41.29 35.716 44.914 36.496 51.238 C36.693 60.488 35.262 68.601 28.93 75.688 C22.566 81.515 18.393 83.627 9.754 83.5 C6.579 83.174 4.662 82.133 2.125 80.23 C1.135 80.23 0.145 80.23 -0.875 80.23 C-1.349 80.746 -1.824 81.262 -2.312 81.793 C-2.828 82.267 -3.344 82.742 -3.875 83.23 C-6 83.043 -6 83.043 -7.875 82.23 C-8.205 81.57 -8.535 80.91 -8.875 80.23 C-9.865 80.89 -10.855 81.55 -11.875 82.23 C-15.611 82.832 -19.145 82.884 -22.875 82.23 C-25.323 80.435 -26.274 78.881 -27.875 76.23 C-28.313 76.664 -28.752 77.097 -29.203 77.543 C-34.355 82.067 -38.392 83.102 -45.223 82.766 C-47.875 82.23 -47.875 82.23 -50.562 79.855 C-53.067 74.846 -53.194 71.737 -51.875 66.23 C-48.465 60.582 -44.128 58.154 -37.875 56.23 C-34.845 55.685 -31.956 55.426 -28.875 55.23 C-28.875 51.93 -28.875 48.63 -28.875 45.23 C-31.845 44.9 -34.815 44.57 -37.875 44.23 C-38.825 47.926 -38.825 50.535 -37.875 54.23 C-40.925 55.755 -43.517 55.466 -46.875 55.23 C-48.812 54.168 -48.812 54.168 -49.875 52.23 C-50.376 48.363 -50.285 46.032 -48.5 42.543 C-42.734 37.463 -35.761 35.496 -28.141 35.844 C-24.594 36.449 -22.491 37.81 -19.875 40.23 C-17.855 44.193 -17.578 47.649 -17.461 52.062 C-17.403 54.001 -17.403 54.001 -17.344 55.979 C-17.312 57.333 -17.281 58.688 -17.25 60.043 C-17.212 61.417 -17.173 62.792 -17.133 64.166 C-17.039 67.521 -16.953 70.875 -16.875 74.23 C-13.181 75.462 -10.669 74.875 -6.875 74.23 C-5.893 66.082 -5.614 57.962 -5.41 49.762 C-5.372 48.391 -5.333 47.02 -5.294 45.649 C-5.13 39.873 -4.971 34.097 -4.825 28.321 C-4.735 24.769 -4.636 21.218 -4.53 17.666 C-4.473 15.662 -4.427 13.658 -4.381 11.653 C-4.344 10.445 -4.308 9.236 -4.27 7.99 C-4.228 6.39 -4.228 6.39 -4.185 4.757 C-3.814 1.731 -3.171 0.39 0 0 Z " fill="#807E82" transform="translate(251.875,114.76953125)"/>
<path d="M0 0 C1.257 0.982 1.257 0.982 2.539 1.984 C2.539 2.644 2.539 3.304 2.539 3.984 C1.947 3.852 1.356 3.719 0.746 3.582 C-3.315 2.674 -7.375 1.775 -11.461 0.984 C-11.461 1.644 -11.461 2.304 -11.461 2.984 C-12.367 3.241 -13.273 3.497 -14.207 3.762 C-23.93 6.818 -30.686 10.56 -36.047 19.684 C-36.902 21.376 -37.721 23.087 -38.488 24.82 C-39.461 26.984 -39.461 26.984 -41.461 29.984 C-42.356 36.866 -41.175 43.116 -39.117 49.672 C-38.461 51.984 -38.461 51.984 -38.461 54.984 C-36.811 54.984 -35.161 54.984 -33.461 54.984 C-33.461 55.644 -33.461 56.304 -33.461 56.984 C-35.441 57.974 -35.441 57.974 -37.461 58.984 C-37.986 63.976 -38.06 66.871 -34.836 70.859 C-28.446 77.428 -18.835 77.001 -10.203 77.274 C9.848 77.943 9.848 77.943 15.27 82.41 C20.215 87.993 19.948 94.019 19.828 101.09 C19.453 106.145 18.372 110.721 15.539 114.984 C14.054 115.479 14.054 115.479 12.539 115.984 C10.637 114.621 10.637 114.621 8.602 112.672 C6.03 110.229 3.796 108.42 0.539 106.984 C0.539 106.324 0.539 105.664 0.539 104.984 C-1.111 104.654 -2.761 104.324 -4.461 103.984 C-4.461 103.324 -4.461 102.664 -4.461 101.984 C-5.451 101.654 -6.441 101.324 -7.461 100.984 C-7.461 99.994 -7.461 99.004 -7.461 97.984 C-8.296 98.387 -8.296 98.387 -9.148 98.797 C-9.912 98.859 -10.675 98.921 -11.461 98.984 C-13.172 97.363 -14.833 95.689 -16.461 93.984 C-17.533 93.448 -18.606 92.912 -19.711 92.359 C-20.618 91.906 -21.526 91.452 -22.461 90.984 C-22.791 89.994 -23.121 89.004 -23.461 87.984 C-25.476 87.251 -25.476 87.251 -27.461 86.984 C-27.461 86.324 -27.461 85.664 -27.461 84.984 C-28.774 84.654 -28.774 84.654 -30.113 84.316 C-34.09 82.734 -36.084 80.762 -39.023 77.672 C-40.387 76.255 -40.387 76.255 -41.777 74.809 C-42.663 73.877 -43.549 72.945 -44.461 71.984 C-45.377 71.104 -46.294 70.224 -47.238 69.316 C-49.461 66.984 -49.461 66.984 -50.461 63.984 C-51.121 63.984 -51.781 63.984 -52.461 63.984 C-61.154 49.85 -67.519 36.128 -65.461 18.984 C-63.277 10.403 -56.778 2.803 -49.461 -2.016 C-35.248 -8.589 -13.564 -8.556 0 0 Z M6.227 98.547 C4.172 100.996 4.172 100.996 4.664 104.672 C5.097 106.312 5.097 106.312 5.539 107.984 C8.658 109.544 11.202 108.64 14.539 107.984 C16.828 106.103 16.828 106.103 16.914 103.047 C16.838 99.936 16.838 99.936 14.789 98.109 C11.433 96.431 9.337 96.445 6.227 98.547 Z " fill="#5A1517" transform="translate(123.4609375,24.015625)"/>
<path d="M0 0 C1.397 0.016 1.397 0.016 2.822 0.033 C15.635 0.329 25.361 2.971 34.66 12.211 C43.438 22.089 46.492 33.615 46.152 46.695 C45.652 52.108 44.433 57.196 42.812 62.375 C42.153 62.375 41.493 62.375 40.812 62.375 C40.73 62.911 40.647 63.447 40.562 64 C37.863 72.55 30.986 76.048 23.562 80.188 C14.98 83.894 7.334 82.326 -1.188 79.375 C-2.889 78.818 -2.889 78.818 -4.625 78.25 C-13.071 74.445 -21.283 66.43 -27.188 59.375 C-27.188 58.715 -27.188 58.055 -27.188 57.375 C-26.239 57.705 -25.29 58.035 -24.312 58.375 C-21.417 59.477 -21.417 59.477 -19.188 59.375 C-20.398 54.768 -20.398 54.768 -22.188 50.375 C-21.197 50.375 -20.208 50.375 -19.188 50.375 C-19.188 51.035 -19.188 51.695 -19.188 52.375 C-18.319 52.75 -18.319 52.75 -17.434 53.133 C-14.889 54.54 -13.253 56.148 -11.25 58.25 C-8.361 61.203 -5.541 63.943 -2.188 66.375 C-1.605 66.808 -1.022 67.241 -0.422 67.688 C6.146 72.239 12.024 72.416 19.812 72.375 C19.142 71.665 19.142 71.665 18.457 70.941 C8.214 59.738 8.214 59.738 7.566 52.703 C7.812 50.375 7.812 50.375 9.688 48.812 C13.309 47.147 16.979 45.663 20.703 44.242 C22.762 43.554 22.762 43.554 23.812 42.375 C24.046 40.526 24.226 38.67 24.375 36.812 C24.459 35.801 24.543 34.789 24.629 33.746 C24.72 32.572 24.72 32.572 24.812 31.375 C24.195 31.256 23.578 31.138 22.941 31.016 C19.753 30.056 18.698 28.051 16.812 25.375 C16.379 24.529 15.946 23.684 15.5 22.812 C12.307 18.201 6.968 16.25 1.812 14.375 C1.812 12.395 1.812 10.415 1.812 8.375 C-10.253 13.95 -18.618 20.065 -27.188 30.375 C-28.521 27.708 -27.859 26.208 -27.188 23.375 C-27.827 23.272 -28.466 23.169 -29.125 23.062 C-30.146 22.722 -30.146 22.722 -31.188 22.375 C-31.518 21.385 -31.847 20.395 -32.188 19.375 C-34.167 20.035 -36.148 20.695 -38.188 21.375 C-37.136 20.354 -37.136 20.354 -36.062 19.312 C-34.021 17.299 -32.262 15.197 -30.5 12.938 C-26.816 8.579 -22.225 5.949 -17.188 3.375 C-16.138 2.831 -15.089 2.287 -14.008 1.727 C-9.431 -0.184 -4.895 -0.077 0 0 Z " fill="#5B181A" transform="translate(187.1875,15.625)"/>
<path d="M0 0 C0.658 -0.002 1.317 -0.004 1.995 -0.006 C3.387 -0.007 4.779 -0.003 6.171 0.005 C8.304 0.016 10.437 0.005 12.57 -0.008 C13.922 -0.006 15.273 -0.004 16.625 0 C18.475 0.003 18.475 0.003 20.363 0.007 C23.312 0.266 23.312 0.266 25.312 2.266 C25.578 4.797 25.578 4.797 25.562 7.766 C25.57 9.235 25.57 9.235 25.578 10.734 C25.312 13.266 25.312 13.266 23.312 15.266 C22.961 18.217 22.961 18.217 22.949 21.731 C22.934 22.395 22.92 23.059 22.904 23.743 C22.873 25.186 22.846 26.629 22.822 28.072 C22.785 30.359 22.735 32.646 22.681 34.933 C22.53 41.436 22.404 47.939 22.283 54.443 C22.209 58.42 22.12 62.397 22.024 66.374 C21.99 67.887 21.962 69.4 21.939 70.914 C21.907 73.037 21.858 75.159 21.805 77.282 C21.771 79.092 21.771 79.092 21.736 80.938 C21.262 84.661 20.273 87.079 18.312 90.266 C13.988 93.488 10.713 94.902 5.305 94.586 C1.81 94.024 -0.597 93.058 -3.688 91.266 C-5.853 87.27 -5.948 83.702 -5.975 79.212 C-5.981 78.522 -5.988 77.832 -5.995 77.121 C-6.009 75.631 -6.018 74.14 -6.023 72.649 C-6.031 70.292 -6.052 67.934 -6.076 65.577 C-6.132 59.726 -6.167 53.875 -6.203 48.024 C-6.234 43.071 -6.274 38.119 -6.323 33.166 C-6.344 30.84 -6.352 28.515 -6.36 26.189 C-6.373 24.77 -6.386 23.35 -6.4 21.931 C-6.408 20.689 -6.415 19.447 -6.422 18.168 C-6.387 15.14 -6.387 15.14 -8.688 13.266 C-8.953 10.734 -8.953 10.734 -8.938 7.766 C-8.943 6.786 -8.948 5.806 -8.953 4.797 C-8.372 -0.743 -4.658 0.009 0 0 Z " fill="#B3B0B1" transform="translate(169.6875,102.734375)"/>
<path d="M0 0 C0 0.928 0 1.856 0 2.812 C0.604 6.03 0.604 6.03 2.637 6.891 C4.044 7.352 5.456 7.8 6.871 8.238 C11.709 9.969 14.758 13.275 17.125 17.688 C19.045 21.079 19.624 21.578 23 23 C23.108 24.769 23.186 26.541 23.25 28.312 C23.296 29.299 23.343 30.285 23.391 31.301 C23 34 23 34 21.34 35.723 C18.719 37.153 16.14 38.166 13.312 39.125 C9.883 40.096 9.883 40.096 7 42 C7.3 49.353 10.571 54.798 15.812 59.875 C16.534 60.576 17.256 61.278 18 62 C18 62.66 18 63.32 18 64 C10.388 65.287 5.5 65.291 -1 61 C-1.903 60.461 -1.903 60.461 -2.824 59.91 C-4.5 58.875 -4.5 58.875 -7 57 C-7 56.34 -7 55.68 -7 55 C-7.575 54.754 -8.15 54.508 -8.742 54.254 C-11.356 52.802 -13.063 51.097 -15.125 48.938 C-17.779 46.084 -17.779 46.084 -21 44 C-21 43.34 -21 42.68 -21 42 C-21.577 41.773 -22.155 41.546 -22.75 41.312 C-25.59 39.656 -27.015 37.605 -29 35 C-30.145 34.041 -30.145 34.041 -31.312 33.062 C-33 31 -33 31 -32.949 28.305 C-31.699 23.952 -29.487 21.392 -26.5 18.062 C-25.958 17.447 -25.415 16.832 -24.856 16.198 C-18.817 9.484 -9.8 0 0 0 Z " fill="#FCFAFA" transform="translate(189,24)"/>
<path d="M0 0 C1.758 1.918 1.758 1.918 1.965 5.141 C1.835 6.408 1.704 7.675 1.57 8.98 C1.453 10.23 1.336 11.479 1.215 12.766 C0.982 14.921 0.74 17.075 0.491 19.229 C-0.222 25.737 -0.458 32.185 -0.492 38.73 C-0.513 39.74 -0.533 40.75 -0.555 41.791 C-0.738 48.935 -0.738 48.935 2.758 54.918 C5.852 56.026 8.606 55.76 11.758 54.918 C18.601 49.936 21.746 40.771 23.758 32.918 C24.005 30.471 24.178 28.016 24.285 25.559 C24.356 24.182 24.427 22.806 24.498 21.43 C24.599 19.288 24.696 17.146 24.787 15.004 C24.878 12.918 24.987 10.832 25.098 8.746 C25.153 7.508 25.208 6.269 25.265 4.993 C25.758 1.918 25.758 1.918 27.158 -0.004 C29.415 -1.525 30.798 -1.192 33.445 -0.77 C34.207 -0.648 34.969 -0.527 35.753 -0.402 C36.415 -0.296 37.076 -0.191 37.758 -0.082 C37.686 0.829 37.615 1.741 37.541 2.68 C36.728 14.104 36.641 25.468 36.695 36.918 C36.7 38.772 36.705 40.626 36.709 42.48 C36.72 46.96 36.737 51.439 36.758 55.918 C39.728 55.918 42.698 55.918 45.758 55.918 C46.07 58.168 46.07 58.168 45.758 60.918 C43.006 63.67 40.647 65.473 36.758 65.918 C36.135 66.004 35.513 66.091 34.871 66.18 C32.687 66.361 30.903 66.38 28.758 65.918 C25.326 62.222 24.231 58.887 23.758 53.918 C23.036 54.825 22.314 55.733 21.57 56.668 C17.986 60.949 14.24 64.423 8.758 65.918 C3.848 66.348 -0.929 66.554 -5.242 63.918 C-10.464 58.454 -12.492 54.202 -12.508 46.684 C-12.512 45.477 -12.516 44.27 -12.52 43.026 C-12.511 41.753 -12.501 40.48 -12.492 39.168 C-12.488 37.872 -12.484 36.576 -12.48 35.241 C-12.395 25.68 -11.772 16.353 -10.242 6.918 C-12.882 6.918 -15.522 6.918 -18.242 6.918 C-18.572 5.268 -18.902 3.618 -19.242 1.918 C-6.386 -3.082 -6.386 -3.082 0 0 Z " fill="#5B191B" transform="translate(45.2421875,128.08203125)"/>
<path d="M0 0 C13.275 2.377 23.942 9.256 32 20 C38.749 30.814 40.428 43.998 37.727 56.371 C33.897 70.229 27.482 77.964 14.965 85.172 C8.328 88.159 0.199 88.112 -6.742 86.273 C-9.252 85.312 -11.61 84.227 -14 83 C-14.794 82.603 -15.588 82.206 -16.406 81.797 C-21.099 79.325 -25.056 76.54 -29 73 C-25.968 73 -24.099 73.545 -21.25 74.5 C-12.613 77.125 -5.687 76.015 2.211 71.828 C8.776 67.875 12.389 63.706 16 57 C16.66 57 17.32 57 18 57 C21.061 42.321 22.016 27.549 14.352 14.109 C11.394 9.692 8.446 6.004 4 3 C3.237 2.422 2.474 1.845 1.688 1.25 C1.131 0.837 0.574 0.425 0 0 Z " fill="#A8A7A8" transform="translate(212,21)"/>
<path d="M0 0 C0.66 0.66 1.32 1.32 2 2 C1.34 2 0.68 2 0 2 C0 1.34 0 0.68 0 0 Z M6 4 C8.5 5.375 8.5 5.375 11 7 C11 7.66 11 8.32 11 9 C11.578 9.082 12.155 9.165 12.75 9.25 C15.628 10.209 16.905 11.84 19 14 C19.66 14.33 20.32 14.66 21 15 C23 16 23 16 25 18.125 C27.029 20.456 27.029 20.456 31 20 C31.33 20.99 31.66 21.98 32 23 C32.66 23.33 33.32 23.66 34 24 C34 24.66 34 25.32 34 26 C35.65 26.33 37.3 26.66 39 27 C39 27.66 39 28.32 39 29 C39.835 29.124 39.835 29.124 40.688 29.25 C44.411 30.457 47.003 32.966 49.688 35.75 C50.939 37.23 50.939 37.23 53 37 C58.712 27.54 57.381 16.615 57 6 C64.468 7.172 69.56 8.58 75.109 13.98 C78.926 20.076 78.143 27.116 77 34 C75.255 41.277 73.269 45.821 67 50 C66.398 52.377 66.398 52.377 66.27 55.164 C66.189 56.204 66.108 57.245 66.025 58.316 C65.955 59.408 65.885 60.5 65.812 61.625 C65.731 62.694 65.649 63.762 65.564 64.863 C65.145 70.59 64.91 76.259 65 82 C67.64 81.67 70.28 81.34 73 81 C73.33 82.65 73.66 84.3 74 86 C69.022 90.328 65.817 91.556 59.234 91.566 C57 91 57 91 55.383 89.461 C53.463 86.044 53.589 82.873 53.637 79.059 C53.636 77.912 53.636 77.912 53.635 76.743 C53.638 75.132 53.647 73.521 53.664 71.909 C53.687 69.443 53.684 66.977 53.678 64.51 C53.683 62.943 53.69 61.376 53.699 59.809 C53.698 59.071 53.697 58.333 53.696 57.574 C53.748 53.844 53.878 52.183 56 49 C56.66 49 57.32 49 58 49 C58 47.35 58 45.7 58 44 C57.154 43.752 56.309 43.505 55.438 43.25 C51.616 41.86 48.481 40.089 45 38 C45 37.34 45 36.68 45 36 C43.68 35.67 42.36 35.34 41 35 C41 34.34 41 33.68 41 33 C40.051 32.691 39.102 32.381 38.125 32.062 C35 31 35 31 33 30 C33 29.34 33 28.68 33 28 C32.031 27.732 31.061 27.464 30.062 27.188 C29.052 26.796 28.041 26.404 27 26 C26.67 25.01 26.34 24.02 26 23 C25.422 22.711 24.845 22.422 24.25 22.125 C22 21 22 21 19.723 18.719 C16.153 15.154 12.215 12.171 8.23 9.086 C7.494 8.398 6.758 7.709 6 7 C6 6.01 6 5.02 6 4 Z M50.062 19.25 C53 20 53 20 55 22 C55.25 25 55.25 25 55 28 C51.994 31.006 49.176 30.596 45 31 C43 28 43 28 43.188 24.438 C44.245 19.962 45.426 18.872 50.062 19.25 Z " fill="#D9CDCD" transform="translate(85,102)"/>
<path d="M0 0 C4.505 1.416 6.751 3.636 10 7 C10.883 7.883 11.766 8.766 12.676 9.676 C15.117 12.117 17.559 14.559 20 17 C19.34 17.66 18.68 18.32 18 19 C17.907 20.64 17.907 20.64 17.812 22.312 C16.813 26.846 15.428 27.726 11.691 30.152 C10 31 10 31 8 31 C8 31.66 8 32.32 8 33 C7.566 33.414 7.131 33.828 6.684 34.254 C3.747 37.3 2.365 41.286 0.598 45.09 C-1.428 48.78 -3.319 51.26 -7.219 52.977 C-7.972 53.191 -8.724 53.405 -9.5 53.625 C-12.524 54.505 -15.215 55.519 -18 57 C-18 59.31 -18 61.62 -18 64 C-12.72 64.33 -7.44 64.66 -2 65 C-2 65.33 -2 65.66 -2 66 C-25.517 66.626 -25.517 66.626 -32.688 60.5 C-36.544 56.732 -37.137 54.42 -37.523 48.973 C-37 47 -37 47 -34.922 45.316 C-31.544 43.794 -28.542 43.365 -24.875 42.875 C-20.055 42.125 -20.055 42.125 -16.598 39.09 C-15.898 36.808 -15.898 36.808 -15.477 34.406 C-14.102 27.464 -9.348 23.044 -3.77 19.129 C-2 18 -2 18 0 17 C-0.084 16.024 -0.168 15.048 -0.254 14.043 C-0.407 12.135 -0.407 12.135 -0.562 10.188 C-0.719 8.291 -0.719 8.291 -0.879 6.355 C-1 3 -1 3 0 0 Z " fill="#998E8F" transform="translate(122,36)"/>
<path d="M0 0 C3.477 3.216 4.356 5.849 4.819 10.542 C4.85 11.731 4.882 12.92 4.914 14.145 C4.972 16.083 4.972 16.083 5.031 18.061 C5.063 19.415 5.094 20.77 5.125 22.125 C5.163 23.499 5.202 24.874 5.242 26.248 C5.336 29.603 5.422 32.957 5.5 36.312 C8.984 37.474 10.941 36.931 14.5 36.312 C15.5 37.312 15.5 37.312 15.562 39.875 C15.542 40.679 15.521 41.484 15.5 42.312 C10.199 44.694 5.244 45.346 -0.5 44.312 C-2.941 42.514 -3.901 40.96 -5.5 38.312 C-5.938 38.746 -6.377 39.179 -6.828 39.625 C-11.98 44.149 -16.017 45.184 -22.848 44.848 C-25.5 44.312 -25.5 44.312 -28.188 41.938 C-30.692 36.928 -30.819 33.819 -29.5 28.312 C-26.09 22.664 -21.753 20.236 -15.5 18.312 C-12.47 17.767 -9.581 17.508 -6.5 17.312 C-6.5 14.012 -6.5 10.713 -6.5 7.312 C-9.47 6.982 -12.44 6.653 -15.5 6.312 C-16.45 10.008 -16.45 12.617 -15.5 16.312 C-18.55 17.837 -21.142 17.548 -24.5 17.312 C-26.438 16.25 -26.438 16.25 -27.5 14.312 C-28.001 10.445 -27.91 8.114 -26.125 4.625 C-18.954 -1.693 -8.775 -4.231 0 0 Z " fill="#807C80" transform="translate(229.5,152.6875)"/>
<path d="M0 0 C3.006 3.006 2.596 5.824 3 10 C3.671 9.169 3.671 9.169 4.355 8.32 C8.835 2.953 11.468 0.505 18.5 -0.5 C22 0 22 0 24.938 2.312 C28.151 6.875 27.376 11.666 27 17 C26.917 18.571 26.836 20.143 26.758 21.715 C26.532 26.145 26.273 30.572 26 35 C28.97 34.34 31.94 33.68 35 33 C35.688 35.312 35.688 35.312 36 38 C32.533 42.488 26.51 43.673 21.125 44.375 C19 44 19 44 17.25 42.812 C14.556 38.906 14.918 34.399 15.121 29.824 C15.169 28.667 15.218 27.51 15.268 26.318 C15.324 25.12 15.38 23.922 15.438 22.688 C15.49 21.47 15.542 20.252 15.596 18.998 C15.725 15.998 15.86 12.999 16 10 C10.927 11.88 9.625 13.49 7.199 18.234 C4.359 24.784 2.116 31.63 1.375 38.75 C1.251 39.822 1.127 40.895 1 42 C-2.215 43.607 -5.436 43.057 -9 43 C-9.145 31.292 -8.711 19.685 -8 8 C-10.64 8.33 -13.28 8.66 -16 9 C-16.33 7.35 -16.66 5.7 -17 4 C-6.361 -0.795 -6.361 -0.795 0 0 Z " fill="#5A1618" transform="translate(102,150)"/>
<path d="M0 0 C0 0.928 0 1.856 0 2.812 C0.616 6.052 0.616 6.052 2.777 6.996 C4.201 7.493 5.639 7.949 7.09 8.359 C9 9 9 9 11 11 C9.606 11.835 9.606 11.835 8.184 12.688 C-3.127 19.557 -3.127 19.557 -11 30 C-11.66 30 -12.32 30 -13 30 C-14.269 33.808 -14.592 35.985 -14 40 C-12.21 42.241 -10.279 44.099 -8.141 46.008 C-6 48 -6 48 -4.062 50.48 C-1.168 54.016 2.325 56.488 5.953 59.23 C6.629 59.814 7.304 60.398 8 61 C8 61.66 8 62.32 8 63 C9.65 63.33 11.3 63.66 13 64 C13 64.33 13 64.66 13 65 C4.879 64.867 -0.683 62.113 -7 57 C-7 56.34 -7 55.68 -7 55 C-7.575 54.754 -8.15 54.508 -8.742 54.254 C-11.356 52.802 -13.063 51.097 -15.125 48.938 C-17.779 46.084 -17.779 46.084 -21 44 C-21 43.34 -21 42.68 -21 42 C-21.577 41.773 -22.155 41.546 -22.75 41.312 C-25.59 39.656 -27.015 37.605 -29 35 C-30.145 34.041 -30.145 34.041 -31.312 33.062 C-33 31 -33 31 -32.949 28.305 C-31.699 23.952 -29.487 21.392 -26.5 18.062 C-25.958 17.447 -25.415 16.832 -24.856 16.198 C-18.817 9.484 -9.8 0 0 0 Z " fill="#BEACAC" transform="translate(189,24)"/>
<path d="M0 0 C1.32 0.33 2.64 0.66 4 1 C3.916 1.69 3.832 2.379 3.746 3.09 C3.073 9.299 3.088 14.821 4 21 C3.336 21.413 2.672 21.825 1.988 22.25 C-3.39 25.768 -7.094 28.744 -10.062 34.496 C-10.372 34.992 -10.681 35.489 -11 36 C-11.66 36 -12.32 36 -13 36 C-13.268 37.114 -13.536 38.227 -13.812 39.375 C-15 43 -15 43 -18 45 C-22.375 44.77 -24.939 43.061 -28 40 C-28.812 37.875 -28.812 37.875 -29 35 C-29.097 34.323 -29.193 33.646 -29.293 32.949 C-30.028 24.48 -26.033 18.139 -22 11 C-21.01 11 -20.02 11 -19 11 C-19 10.34 -19 9.68 -19 9 C-17.844 8.385 -17.844 8.385 -16.664 7.758 C-15.661 7.219 -14.658 6.68 -13.625 6.125 C-12.627 5.591 -11.63 5.058 -10.602 4.508 C-7.947 3.118 -7.947 3.118 -6 1 C-3.375 1.375 -3.375 1.375 -1 2 C-0.67 1.34 -0.34 0.68 0 0 Z " fill="#B30307" transform="translate(119,32)"/>
<path d="M0 0 C2 -0.043 4 -0.041 6 0 C7.786 1.786 7 4.592 7 7 C7.33 7.66 7.66 8.32 8 9 C8.112 12.065 8.164 15.106 8.168 18.172 C8.171 19.087 8.175 20.002 8.178 20.945 C8.183 22.885 8.185 24.825 8.185 26.766 C8.187 29.724 8.206 32.682 8.225 35.641 C8.228 37.526 8.23 39.411 8.23 41.297 C8.238 42.178 8.245 43.06 8.252 43.968 C8.231 49.775 7.646 54.433 4.438 59.438 C1.108 61.572 -1.158 61.075 -4.977 60.555 C-7 60 -7 60 -9 58 C-9.947 55.165 -10.122 52.573 -10.114 49.599 C-10.113 48.738 -10.113 47.877 -10.113 46.991 C-10.108 46.071 -10.103 45.151 -10.098 44.203 C-10.096 43.254 -10.095 42.306 -10.093 41.328 C-10.088 38.302 -10.075 35.276 -10.062 32.25 C-10.057 30.197 -10.053 28.143 -10.049 26.09 C-10.038 21.06 -10.021 16.03 -10 11 C-9.01 11 -8.02 11 -7 11 C-6.67 26.18 -6.34 41.36 -6 57 C-3.36 57 -0.72 57 2 57 C2.495 56.505 2.495 56.505 3 56 C1.35 55.67 -0.3 55.34 -2 55 C-2.999 52.002 -3.129 50.003 -3.133 46.871 C-3.135 45.844 -3.137 44.816 -3.139 43.758 C-3.134 42.662 -3.13 41.566 -3.125 40.438 C-3.123 39.323 -3.121 38.209 -3.119 37.061 C-3.071 27.682 -2.669 18.353 -2 9 C-1.34 8.67 -0.68 8.34 0 8 C-0.66 7.34 -1.32 6.68 -2 6 C-1.646 3.737 -1.025 2.049 0 0 Z " fill="#972B2E" transform="translate(179,130)"/>
<path d="M0 0 C6.6 0 13.2 0 20 0 C20.068 8.632 20.123 17.264 20.155 25.896 C20.171 29.905 20.192 33.913 20.226 37.922 C20.259 41.793 20.277 45.664 20.285 49.535 C20.29 51.009 20.301 52.483 20.317 53.957 C20.339 56.028 20.342 58.098 20.341 60.168 C20.347 61.345 20.354 62.522 20.361 63.735 C19.95 67.453 18.959 69.828 17 73 C13.266 75.49 10.317 75.397 6 75 C2.743 74.204 1.455 73.576 -0.621 70.945 C-2.42 67.104 -2.361 63.711 -2.25 59.562 C-2.238 58.719 -2.227 57.875 -2.215 57.005 C-2.164 54.003 -2.084 51.002 -2 48 C-1.969 46.755 -1.937 45.51 -1.905 44.227 C-1.802 40.193 -1.685 36.159 -1.562 32.125 C-1.524 30.824 -1.485 29.523 -1.444 28.182 C-1.402 26.949 -1.36 25.716 -1.316 24.445 C-1.28 23.347 -1.243 22.249 -1.205 21.118 C-1.001 18.022 -0.564 15.049 0 12 C2.64 12 5.28 12 8 12 C8 11.34 8 10.68 8 10 C5.36 10 2.72 10 0 10 C0 9.34 0 8.68 0 8 C2.64 7.67 5.28 7.34 8 7 C5.36 6.67 2.72 6.34 0 6 C0 5.34 0 4.68 0 4 C2.64 4 5.28 4 8 4 C8 3.34 8 2.68 8 2 C5.36 2 2.72 2 0 2 C0 1.34 0 0.68 0 0 Z M10 5 C9.67 5.99 9.34 6.98 9 8 C10.32 8.99 11.64 9.98 13 11 C13.66 10.34 14.32 9.68 15 9 C14.681 6.892 14.681 6.892 14 5 C12.68 5 11.36 5 10 5 Z M11 12 C8.714 14.703 8.714 14.703 9.312 17.125 C9.846 18.986 9.846 18.986 11 20 C10.01 20.495 10.01 20.495 9 21 C8.25 31.482 7.893 41.928 7.875 52.438 C7.87 53.533 7.866 54.629 7.861 55.758 C7.864 57.299 7.864 57.299 7.867 58.871 C7.868 59.788 7.869 60.705 7.871 61.65 C7.905 64.154 7.905 64.154 9 67 C10.65 67.33 12.3 67.66 14 68 C13.505 68.495 13.505 68.495 13 69 C10.36 69 7.72 69 5 69 C4.67 53.82 4.34 38.64 4 23 C3.01 23 2.02 23 1 23 C0.951 29.032 0.914 35.064 0.89 41.097 C0.88 43.148 0.866 45.2 0.849 47.251 C0.825 50.203 0.814 53.154 0.805 56.105 C0.794 57.02 0.784 57.935 0.773 58.877 C0.772 64.293 1.233 68.21 4.188 72.875 C6.122 74.297 6.122 74.297 9.375 74 C13.661 72.818 15.299 71.496 18 68 C19.425 63.268 19.144 58.325 19.133 53.43 C19.134 52.512 19.135 51.594 19.136 50.648 C19.136 48.713 19.135 46.778 19.13 44.843 C19.125 41.879 19.13 38.914 19.137 35.949 C19.136 34.068 19.135 32.186 19.133 30.305 C19.135 29.417 19.137 28.53 19.139 27.615 C19.136 26.791 19.133 25.966 19.129 25.117 C19.129 24.392 19.128 23.668 19.127 22.922 C19.067 20.779 19.067 20.779 18 18 C18 16.333 18 14.667 18 13 C16.887 11.673 16.887 11.673 14.062 11.75 C13.052 11.833 12.041 11.915 11 12 Z M3 13 C3 14.32 3 15.64 3 17 C4.32 16.67 5.64 16.34 7 16 C6.67 15.01 6.34 14.02 6 13 C5.01 13 4.02 13 3 13 Z " fill="#FAF7F7" transform="translate(168,118)"/>
<path d="M0 0 C5.769 5.221 6.669 12.988 7.16 20.426 C7.479 30.015 6.314 40.423 0 48 C-0.385 48.559 -0.771 49.119 -1.168 49.695 C-5.458 55.507 -11.291 58.556 -18 61 C-20.894 61.42 -23.073 61.338 -26 61 C-25.34 60.484 -24.68 59.969 -24 59.438 C-23.01 58.633 -22.02 57.829 -21 57 C-20.361 56.502 -19.721 56.005 -19.062 55.492 C-13.845 51.243 -10.914 47.017 -8 41 C-7.642 40.363 -7.283 39.726 -6.914 39.07 C-1.71 29.641 -0.653 20.085 -0.992 9.445 C-1 6.163 -0.639 3.213 0 0 Z " fill="#959192" transform="translate(240,43)"/>
<path d="M0 0 C3.591 0.625 6.806 1.582 10.188 2.938 C11.047 3.277 11.907 3.616 12.793 3.965 C15 5 15 5 17 7 C16.34 7 15.68 7 15 7 C14.67 7.99 14.34 8.98 14 10 C13.492 9.602 12.984 9.203 12.461 8.793 C8.461 5.714 4.631 3.084 0 1 C0 0.67 0 0.34 0 0 Z M11 5 C12 7 12 7 12 7 Z M17 7 C17.99 7.33 18.98 7.66 20 8 C19.01 8 18.02 8 17 8 C17 7.67 17 7.34 17 7 Z M20 9 C27.102 12.012 32.199 19.227 35.262 26.121 C40.562 39.61 39.848 53.545 34.109 66.727 C29.732 75.697 22.248 81.894 13.125 86 C3.765 88.935 -5.466 87.381 -14 83 C-14.794 82.603 -15.588 82.206 -16.406 81.797 C-21.099 79.325 -25.056 76.54 -29 73 C-25.968 73 -24.099 73.545 -21.25 74.5 C-13.451 76.87 -7.399 76.235 0 73 C2.125 71.787 4.165 70.494 6.203 69.141 C8.365 67.768 10.582 66.831 13 66 C12.34 67.98 11.68 69.96 11 72 C10.01 72 9.02 72 8 72 C7.722 72.835 7.722 72.835 7.438 73.688 C4.693 78.103 0.655 80.563 -4.312 81.875 C-7 82 -7 82 -9 81 C-9 81.66 -9 82.32 -9 83 C2.784 84.135 11.01 84.585 21.02 77.34 C23 76 23 76 26 75 C27.092 73.171 27.092 73.171 28 71 C28.831 69.582 29.665 68.166 30.5 66.75 C36.456 55.874 36.707 42.891 33.375 31.062 C31.113 24.568 27.877 18.877 23 14 C21.977 12.347 20.974 10.682 20 9 Z M8 74 C10 75 10 75 10 75 Z " fill="#CDC5C5" transform="translate(212,21)"/>
<path d="M0 0 C0 10.89 0 21.78 0 33 C2.64 32.67 5.28 32.34 8 32 C8.33 33.65 8.66 35.3 9 37 C4.022 41.328 0.817 42.556 -5.766 42.566 C-8 42 -8 42 -9.613 40.459 C-11.531 37.06 -11.449 33.895 -11.434 30.094 C-11.439 29.332 -11.444 28.57 -11.449 27.786 C-11.456 26.178 -11.455 24.571 -11.446 22.964 C-11.438 20.508 -11.466 18.054 -11.498 15.598 C-11.5 14.034 -11.499 12.47 -11.496 10.906 C-11.507 10.174 -11.519 9.441 -11.53 8.687 C-11.485 5.38 -11.169 3.271 -9.406 0.443 C-7 -1 -7 -1 0 0 Z " fill="#571719" transform="translate(150,151)"/>
<path d="M0 0 C0.658 -0.002 1.317 -0.004 1.995 -0.006 C3.387 -0.007 4.779 -0.003 6.171 0.005 C8.304 0.016 10.437 0.005 12.57 -0.008 C13.922 -0.006 15.273 -0.004 16.625 0 C18.475 0.003 18.475 0.003 20.363 0.007 C23.312 0.266 23.312 0.266 25.312 2.266 C25.508 4.867 25.508 4.867 25.438 7.891 C25.419 8.894 25.401 9.896 25.383 10.93 C25.36 11.701 25.336 12.471 25.312 13.266 C20.949 14.945 17.517 15.473 12.855 15.277 C11.661 15.23 10.467 15.183 9.236 15.135 C8.003 15.075 6.77 15.015 5.5 14.953 C4.248 14.905 2.995 14.856 1.705 14.807 C-7.543 14.41 -7.543 14.41 -8.688 13.266 C-8.812 11.456 -8.863 9.642 -8.875 7.828 C-8.889 6.839 -8.903 5.851 -8.918 4.832 C-8.417 -0.747 -4.667 0.009 0 0 Z " fill="#24247F" transform="translate(169.6875,102.734375)"/>
<path d="M0 0 C0.99 0 1.98 0 3 0 C3.33 0.66 3.66 1.32 4 2 C5.32 2 6.64 2 8 2 C10.07 3.531 10.07 3.531 12.125 5.5 C14.644 8.239 14.644 8.239 18 9 C20.333 9 22.667 9 25 9 C25 9.99 25 10.98 25 12 C26.98 12.66 28.96 13.32 31 14 C31 14.66 31 15.32 31 16 C30.01 16 29.02 16 28 16 C28.66 16.33 29.32 16.66 30 17 C29.917 18.052 29.835 19.104 29.75 20.188 C30.041 24.622 31.234 25.699 34 29 C33.826 32.052 33.187 32.813 31 35 C26.506 32.37 23.54 29.468 20.203 25.5 C17.32 22.228 14.269 19.147 11.188 16.062 C10.612 15.483 10.036 14.903 9.443 14.305 C6.502 11.283 6.502 11.283 3 9 C3 7.35 3 5.7 3 4 C1.68 3.67 0.36 3.34 -1 3 C-0.67 2.01 -0.34 1.02 0 0 Z M33 33 C33.66 33 34.32 33 35 33 C34.67 33.99 34.34 34.98 34 36 C33.34 35.67 32.68 35.34 32 35 C32.33 34.34 32.66 33.68 33 33 Z " fill="#B20307" transform="translate(125,32)"/>
<path d="M0 0 C0.784 0.248 1.567 0.495 2.375 0.75 C4.905 5.811 4.013 14.657 2.879 20.156 C1.337 24.128 -0.914 26.726 -4.625 28.75 C-8.01 28.578 -10.588 28.269 -13.625 26.75 C-13.625 26.09 -13.625 25.43 -13.625 24.75 C-14.285 24.75 -14.945 24.75 -15.625 24.75 C-14.963 15.478 -11.284 9.006 -5.625 1.75 C-2.625 -0.25 -2.625 -0.25 0 0 Z " fill="#FAF9F9" transform="translate(272.625,162.25)"/>
<path d="M0 0 C8.58 0 17.16 0 26 0 C26 0.33 26 0.66 26 1 C19.07 1 12.14 1 5 1 C5 1.66 5 2.32 5 3 C7.64 3 10.28 3 13 3 C13 3.66 13 4.32 13 5 C10.36 5 7.72 5 5 5 C5 5.66 5 6.32 5 7 C7.97 7 10.94 7 14 7 C13.67 7.66 13.34 8.32 13 9 C10.36 9 7.72 9 5 9 C5 9.66 5 10.32 5 11 C7.64 11 10.28 11 13 11 C13 11.66 13 12.32 13 13 C7.25 14.125 7.25 14.125 5 13 C4.653 24.284 4.335 35.568 4.054 46.854 C4.006 48.76 3.955 50.666 3.904 52.571 C3.835 55.339 3.787 58.106 3.75 60.875 C3.729 61.638 3.707 62.401 3.686 63.187 C3.655 67.868 4.609 70.986 7 75 C6.01 75 5.02 75 4 75 C3.67 74.01 3.34 73.02 3 72 C2.34 72 1.68 72 1 72 C0.67 48.24 0.34 24.48 0 0 Z M15 6 C16.65 6.33 18.3 6.66 20 7 C19.67 8.32 19.34 9.64 19 11 C18.01 11 17.02 11 16 11 C15.34 10.01 14.68 9.02 14 8 C14.33 7.34 14.66 6.68 15 6 Z M8 14 C9.98 14.495 9.98 14.495 12 15 C11.67 15.99 11.34 16.98 11 18 C9.68 17.67 8.36 17.34 7 17 C7.33 16.01 7.66 15.02 8 14 Z " fill="#A9A6A7" transform="translate(163,117)"/>
<path d="M0 0 C2.31 0.33 4.62 0.66 7 1 C7 15.19 7 29.38 7 44 C5 45 5 45 1.875 44.062 C0.452 43.537 0.452 43.537 -1 43 C-0.814 42.361 -0.629 41.721 -0.438 41.062 C-0.221 40.042 -0.221 40.042 0 39 C-0.33 38.67 -0.66 38.34 -1 38 C-1.103 35.26 -1.141 32.552 -1.125 29.812 C-1.123 29.006 -1.121 28.2 -1.119 27.369 C-1.068 20.211 -0.594 13.133 0 6 C0.105 3.789 0.105 3.789 -1 1 C-0.67 0.67 -0.34 0.34 0 0 Z " fill="#AE0408" transform="translate(179,140)"/>
<path d="M0 0 C2.625 -0.062 2.625 -0.062 6 1 C11.541 7.178 13.361 13.358 13.293 21.516 C12.677 26.742 10.749 32.251 7 36 C4 36.312 4 36.312 1 36 C0.34 35.01 -0.32 34.02 -1 33 C-0.34 33 0.32 33 1 33 C0.965 32.299 0.93 31.597 0.895 30.875 C0.76 26.144 0.66 22.143 2.562 17.75 C4.516 13.203 3.988 9.639 2.254 5.008 C1.546 3.32 0.778 1.657 0 0 Z " fill="#C3BDBD" transform="translate(147,111)"/>
<path d="M0 0 C2.97 0.99 5.94 1.98 9 3 C7.224 4.184 5.443 5.361 3.652 6.523 C-6.033 13.129 -13.722 21.443 -19 32 C-20.938 31.312 -20.938 31.312 -23 30 C-24.449 26.619 -24.007 25.022 -22.875 21.5 C-20.921 17.853 -19.048 15.771 -16 13 C-14.852 11.814 -13.706 10.627 -12.562 9.438 C-5.109 2 -5.109 2 0 2 C0 1.34 0 0.68 0 0 Z " fill="#969293" transform="translate(189,30)"/>
<path d="M0 0 C0.268 0.639 0.536 1.279 0.812 1.938 C1.887 4.331 1.887 4.331 5 5 C6 8 6 8 5.188 10.016 C4.6 11.122 4.6 11.122 4 12.25 C1.857 16.734 1.782 19.231 3 24 C3.99 24.33 4.98 24.66 6 25 C10.167 30 12.26 34.761 14 41 C13.01 41.66 12.02 42.32 11 43 C11 42.34 11 41.68 11 41 C10.464 40.917 9.928 40.835 9.375 40.75 C4.918 39.343 1.753 37.105 -0.875 33.25 C-1.246 32.507 -1.618 31.765 -2 31 C-0.02 31.66 1.96 32.32 4 33 C4.33 32.34 4.66 31.68 5 31 C4.34 30.67 3.68 30.34 3 30 C2.856 29.402 2.711 28.804 2.562 28.188 C2.14 25.895 2.14 25.895 0.438 24.125 C-1.463 21.315 -1.145 19.327 -1 16 C-1.33 15.34 -1.66 14.68 -2 14 C-1.01 14 -0.02 14 1 14 C1 13.34 1 12.68 1 12 C-0.98 11.34 -2.96 10.68 -5 10 C-5 9.01 -5 8.02 -5 7 C-6.65 7.33 -8.3 7.66 -10 8 C-8.603 4.501 -7.287 3.291 -3.875 1.75 C-3.151 1.415 -2.426 1.08 -1.68 0.734 C-1.125 0.492 -0.571 0.25 0 0 Z " fill="#8A0C0F" transform="translate(155,34)"/>
<path d="M0 0 C0.99 0.33 1.98 0.66 3 1 C1.68 1.33 0.36 1.66 -1 2 C-0.67 1.34 -0.34 0.68 0 0 Z M-2 2 C-1.34 2.33 -0.68 2.66 0 3 C-0.119 7.199 -0.243 11.399 -0.372 15.598 C-0.416 17.025 -0.457 18.453 -0.497 19.881 C-0.555 21.936 -0.619 23.992 -0.684 26.047 C-0.72 27.283 -0.757 28.519 -0.795 29.792 C-1.034 33.531 -1.822 36.465 -3 40 C-3.214 40.735 -3.428 41.47 -3.648 42.227 C-3.888 43.018 -4.128 43.81 -4.375 44.625 C-4.61 45.422 -4.844 46.218 -5.086 47.039 C-5.388 47.686 -5.689 48.333 -6 49 C-7.485 49.495 -7.485 49.495 -9 50 C-9 50.99 -9 51.98 -9 53 C-12.333 56 -12.333 56 -15 56 C-15 56.66 -15 57.32 -15 58 C-18.215 59.607 -21.436 59.057 -25 59 C-25.33 58.34 -25.66 57.68 -26 57 C-25.42 57.009 -24.84 57.018 -24.242 57.027 C-20.789 56.896 -18.032 56.774 -15.207 54.656 C-8.154 46.679 -4.964 37.11 -4.402 26.57 C-4.363 25.895 -4.324 25.219 -4.284 24.522 C-4.161 22.39 -4.048 20.258 -3.938 18.125 C-3.822 15.971 -3.704 13.817 -3.581 11.663 C-3.47 9.725 -3.368 7.787 -3.265 5.848 C-3 3 -3 3 -2 2 Z M-5 50 C-2 52 -2 52 -1.438 54.562 C-1.293 55.367 -1.149 56.171 -1 57 C-0.34 57.33 0.32 57.66 1 58 C0.959 58.784 0.918 59.567 0.875 60.375 C0.713 63.161 0.713 63.161 3 65 C5.571 65.648 5.571 65.648 8 66 C8 66.33 8 66.66 8 67 C2.821 67.518 2.821 67.518 0 67 C-3.432 63.304 -4.527 59.969 -5 55 C-6.65 56.32 -8.3 57.64 -10 59 C-9.67 57.02 -9.34 55.04 -9 53 C-7.68 52.67 -6.36 52.34 -5 52 C-5 51.34 -5 50.68 -5 50 Z " fill="#52282A" transform="translate(74,127)"/>
<path d="M0 0 C0.99 0 1.98 0 3 0 C3 0.99 3 1.98 3 3 C2.443 3.268 1.886 3.536 1.312 3.812 C-5.884 7.508 -11.494 12.241 -16 19 C-16.66 19 -17.32 19 -18 19 C-19.485 24.445 -19.485 24.445 -21 30 C-22.32 30 -23.64 30 -25 30 C-24.39 22.559 -22.489 18.635 -16.875 13.691 C-14.787 11.948 -14.787 11.948 -13 9 C-12.34 9 -11.68 9 -11 9 C-11 8.34 -11 7.68 -11 7 C-9.355 5.711 -9.355 5.711 -7.188 4.375 C-6.48 3.929 -5.772 3.483 -5.043 3.023 C-3 2 -3 2 0 2 C0 1.34 0 0.68 0 0 Z M11.75 4.75 C12.493 4.833 13.235 4.915 14 5 C11.314 7.686 8.624 8.06 5 9 C8.323 5.062 8.323 5.062 11.75 4.75 Z M3 9 C3.66 9.33 4.32 9.66 5 10 C4.01 10 3.02 10 2 10 C2.33 9.67 2.66 9.34 3 9 Z M0 11 C0.66 11.33 1.32 11.66 2 12 C0.02 12.99 0.02 12.99 -2 14 C-1.34 13.01 -0.68 12.02 0 11 Z M-3 14 C-3 14.99 -3 15.98 -3 17 C-4.485 17.99 -4.485 17.99 -6 19 C-4.125 15.125 -4.125 15.125 -3 14 Z M-9 21 C-9 24 -9 24 -9 24 Z M-12 25 C-12 28 -12 28 -12 28 Z M-14 28 C-13 30 -13 30 -12.691 32.324 C-11.821 35.694 -10.308 37.291 -7.938 39.812 C-7.204 40.603 -6.471 41.393 -5.715 42.207 C-5.149 42.799 -4.583 43.39 -4 44 C-7.364 44 -8.401 43.381 -11.188 41.625 C-12.261 40.964 -12.261 40.964 -13.355 40.289 C-13.898 39.864 -14.441 39.438 -15 39 C-15 38.34 -15 37.68 -15 37 C-16.176 36.629 -16.176 36.629 -17.375 36.25 C-20.323 34.846 -20.902 33.993 -22 31 C-19 31 -19 31 -16 32 C-15.34 30.68 -14.68 29.36 -14 28 Z " fill="#A8A8A9" transform="translate(186,29)"/>
<path d="M0 0 C0.66 0.66 1.32 1.32 2 2 C1.34 2 0.68 2 0 2 C0 1.34 0 0.68 0 0 Z M6 4 C8.5 5.375 8.5 5.375 11 7 C11 7.66 11 8.32 11 9 C11.578 9.082 12.155 9.165 12.75 9.25 C15.628 10.209 16.905 11.84 19 14 C19.66 14.33 20.32 14.66 21 15 C23 16 23 16 25 18.125 C27.029 20.456 27.029 20.456 31 20 C31.33 20.99 31.66 21.98 32 23 C32.66 23.33 33.32 23.66 34 24 C34 24.66 34 25.32 34 26 C35.65 26.33 37.3 26.66 39 27 C39 27.66 39 28.32 39 29 C39.578 29.083 40.155 29.165 40.75 29.25 C43.616 30.205 44.999 31.785 47 34 C43.331 33.294 40.295 31.723 37 30 C37 29.34 37 28.68 37 28 C36.134 27.752 35.267 27.505 34.375 27.25 C30.789 25.922 28.037 24.314 25 22 C25 21.34 25 20.68 25 20 C24.162 19.796 23.324 19.593 22.461 19.383 C18.048 17.62 15.126 15.025 11.625 11.875 C10.984 11.312 10.344 10.748 9.684 10.168 C8.115 8.787 6.557 7.395 5 6 C5.33 5.34 5.66 4.68 6 4 Z M50.062 19.25 C53 20 53 20 55 22 C55.25 25 55.25 25 55 28 C51.994 31.006 49.176 30.596 45 31 C43 28 43 28 43.188 24.438 C44.245 19.962 45.426 18.872 50.062 19.25 Z " fill="#5E393B" transform="translate(85,102)"/>
<path d="M0 0 C2.475 0.99 2.475 0.99 5 2 C5 15.86 5 29.72 5 44 C6.98 44 8.96 44 11 44 C10.34 44.99 9.68 45.98 9 47 C6.257 47.471 3.804 47.178 1 47 C0 46 0 46 -0.12 44.133 C-0.118 43.318 -0.116 42.503 -0.114 41.664 C-0.113 40.743 -0.113 39.822 -0.113 38.873 C-0.108 37.872 -0.103 36.871 -0.098 35.84 C-0.096 34.82 -0.095 33.801 -0.093 32.75 C-0.088 29.479 -0.075 26.208 -0.062 22.938 C-0.057 20.726 -0.053 18.514 -0.049 16.303 C-0.038 10.868 -0.021 5.434 0 0 Z " fill="#F7F4F4" transform="translate(172,141)"/>
<path d="M0 0 C1.98 1.32 3.96 2.64 6 4 C5.34 4.66 4.68 5.32 4 6 C3.907 7.64 3.907 7.64 3.812 9.312 C2.813 13.846 1.428 14.726 -2.309 17.152 C-4 18 -4 18 -6 18 C-6 18.66 -6 19.32 -6 20 C-6.434 20.414 -6.869 20.828 -7.316 21.254 C-10.253 24.3 -11.635 28.286 -13.402 32.09 C-15.428 35.78 -17.319 38.26 -21.219 39.977 C-21.972 40.191 -22.724 40.405 -23.5 40.625 C-26.524 41.505 -29.215 42.519 -32 44 C-32 46.31 -32 48.62 -32 51 C-26.72 51.33 -21.44 51.66 -16 52 C-16 52.33 -16 52.66 -16 53 C-18.208 53.054 -20.417 53.093 -22.625 53.125 C-23.855 53.148 -25.085 53.171 -26.352 53.195 C-29.943 53.003 -32.667 52.303 -36 51 C-36.888 47.227 -37.372 44.861 -35.812 41.25 C-32.085 38.268 -28.511 37.666 -23.875 36.773 C-20.844 35.958 -19.25 35.165 -17 33 C-15.856 30.991 -15.856 30.991 -15.062 28.75 C-12.53 22.703 -9.878 18.045 -4.25 14.5 C-1.249 12.521 -1.065 12.244 -0.062 8.5 C-0.042 7.345 -0.021 6.19 0 5 C0.021 4.031 0.041 3.061 0.062 2.062 C0.042 1.382 0.021 0.701 0 0 Z " fill="#B9B2B3" transform="translate(136,49)"/>
<path d="M0 0 C4 1 4 1 4 1 Z M4 1 C11.218 1.37 16.459 5.754 21.688 10.375 C30.679 20.582 30.679 20.582 31 27 C28.932 24.314 27.098 21.567 25.312 18.688 C19.816 10.463 12.942 5.976 4 2 C4 1.67 4 1.34 4 1 Z M31 27 C33 29 33 29 33.125 31.625 C33.084 32.409 33.042 33.193 33 34 C31 31 31 31 31 27 Z M33 34 C33.33 34 33.66 34 34 34 C35.194 41.162 35.438 47.81 34 55 C33.67 55 33.34 55 33 55 C33 48.07 33 41.14 33 34 Z M32 55 C32.33 55 32.66 55 33 55 C32.67 57.31 32.34 59.62 32 62 C31.066 58.99 30.956 58.133 32 55 Z M30 62 C31 65 31 65 30.137 67.199 C24.928 76.142 17.712 82.874 7.836 86.379 C-1.277 88.375 -10.481 87.772 -19 84 C-20.011 83.608 -21.021 83.216 -22.062 82.812 C-22.702 82.544 -23.341 82.276 -24 82 C-24 81.01 -24 80.02 -24 79 C-23.169 79.349 -22.337 79.699 -21.48 80.059 C-20.394 80.514 -19.307 80.969 -18.188 81.438 C-17.109 81.89 -16.03 82.342 -14.918 82.809 C-7.171 85.972 1.309 86.354 9.25 83.438 C19.548 78.639 24.997 72.007 30 62 Z M-34 72 C-31.69 73.65 -29.38 75.3 -27 77 C-27.99 77.495 -27.99 77.495 -29 78 C-30.707 76.719 -32.374 75.382 -34 74 C-34 73.34 -34 72.68 -34 72 Z M-27 78 C-26.34 78 -25.68 78 -25 78 C-25 78.66 -25 79.32 -25 80 C-25.66 80 -26.32 80 -27 80 C-27 79.34 -27 78.68 -27 78 Z " fill="#F3ECEC" transform="translate(217,22)"/>
<path d="M0 0 C0.66 0.33 1.32 0.66 2 1 C1.34 2.65 0.68 4.3 0 6 C-0.99 6 -1.98 6 -3 6 C-3.278 6.835 -3.278 6.835 -3.562 7.688 C-6.307 12.103 -10.345 14.563 -15.312 15.875 C-18 16 -18 16 -20 15 C-20 15.66 -20 16.32 -20 17 C-26.687 16.709 -31.671 13.978 -37 10 C-38.797 7.801 -38.797 7.801 -40 6 C-39.34 6.289 -38.68 6.578 -38 6.875 C-28.531 10.426 -20.447 11.116 -11 7 C-8.232 5.469 -5.607 3.787 -3 2 C-2.01 1.34 -1.02 0.68 0 0 Z M-3 8 C-1 9 -1 9 -1 9 Z M-20 17 C-18 18 -18 18 -18 18 Z " fill="#BFB7B7" transform="translate(223,87)"/>
<path d="M0 0 C1.98 0.99 1.98 0.99 4 2 C3.67 3.98 3.34 5.96 3 8 C1.586 5.361 0.628 2.929 0 0 Z M-54 3 C-52.02 3.66 -50.04 4.32 -48 5 C-48 5.66 -48 6.32 -48 7 C-47.01 7.33 -46.02 7.66 -45 8 C-45.66 8.66 -46.32 9.32 -47 10 C-47 9.34 -47 8.68 -47 8 C-47.598 7.732 -48.196 7.464 -48.812 7.188 C-50.972 6.015 -52.358 4.806 -54 3 Z M3 8 C3.33 8 3.66 8 4 8 C4.568 16.157 4.148 25.17 -1.449 31.688 C-3 33 -3 33 -6 35 C-6.602 37.509 -6.602 37.509 -6.73 40.445 C-6.811 41.522 -6.892 42.598 -6.975 43.707 C-7.045 44.835 -7.115 45.963 -7.188 47.125 C-7.269 48.261 -7.351 49.396 -7.436 50.566 C-7.636 53.377 -7.824 56.188 -8 59 C-8.33 59 -8.66 59 -9 59 C-9.11 50.598 -8.955 42.353 -8 34 C-10.31 33.67 -12.62 33.34 -15 33 C-14.01 31.515 -14.01 31.515 -13 30 C-11.67 30.309 -11.67 30.309 -10.312 30.625 C-6.639 31.041 -5.204 30.759 -2 29 C1.73 22.681 2.687 15.219 3 8 Z M-45 9 C-40.545 10.98 -40.545 10.98 -36 13 C-36 13.66 -36 14.32 -36 15 C-35.113 15.268 -34.226 15.536 -33.312 15.812 C-28.896 17.396 -25.029 19.333 -22 23 C-22 23.66 -22 24.32 -22 25 C-23.98 24.34 -25.96 23.68 -28 23 C-28 22.34 -28 21.68 -28 21 C-29.32 20.67 -30.64 20.34 -32 20 C-32 19.34 -32 18.68 -32 18 C-32.949 17.691 -33.898 17.381 -34.875 17.062 C-38 16 -38 16 -40 15 C-40 14.34 -40 13.68 -40 13 C-41.98 12.34 -43.96 11.68 -46 11 C-45.67 10.34 -45.34 9.68 -45 9 Z M-21 24 C-20.67 24.66 -20.34 25.32 -20 26 C-18.021 26.727 -16.02 27.398 -14 28 C-14 28.99 -14 29.98 -14 31 C-14.33 30.34 -14.66 29.68 -15 29 C-16.979 28.273 -18.98 27.602 -21 27 C-21 26.01 -21 25.02 -21 24 Z " fill="#E6DDDE" transform="translate(158,117)"/>
<path d="M0 0 C0.66 0.33 1.32 0.66 2 1 C1.01 1 0.02 1 -1 1 C-0.67 0.67 -0.34 0.34 0 0 Z M-3 2 C-2.34 2.33 -1.68 2.66 -1 3 C-1.99 3 -2.98 3 -4 3 C-3.67 2.67 -3.34 2.34 -3 2 Z M-6 4 C-5.34 4.33 -4.68 4.66 -4 5 C-4.99 5 -5.98 5 -7 5 C-6.67 4.67 -6.34 4.34 -6 4 Z M-10 7 C-9.01 7.495 -9.01 7.495 -8 8 C-8.99 8.495 -8.99 8.495 -10 9 C-10 8.34 -10 7.68 -10 7 Z M-14 12 C-14 12.99 -14 13.98 -14 15 C-14.99 15.495 -14.99 15.495 -16 16 C-15.34 14.68 -14.68 13.36 -14 12 Z M-17 16 C-16.67 16.66 -16.34 17.32 -16 18 C-16.66 17.67 -17.32 17.34 -18 17 C-17.67 16.67 -17.34 16.34 -17 16 Z M-21 21 C-20.67 21 -20.34 21 -20 21 C-20 23.31 -20 25.62 -20 28 C-20.66 27.34 -21.32 26.68 -22 26 C-21.625 23.375 -21.625 23.375 -21 21 Z M-25 30 C-24.34 30 -23.68 30 -23 30 C-23.33 30.66 -23.66 31.32 -24 32 C-24.33 31.34 -24.66 30.68 -25 30 Z M-18 30 C-16.912 30.89 -15.83 31.787 -14.75 32.688 C-13.845 33.436 -13.845 33.436 -12.922 34.199 C-11 36 -11 36 -9.094 38.445 C-6.185 41.994 -2.69 44.477 0.953 47.23 C1.629 47.814 2.304 48.398 3 49 C3 49.66 3 50.32 3 51 C4.65 51.33 6.3 51.66 8 52 C8 52.33 8 52.66 8 53 C-0.121 52.867 -5.683 50.113 -12 45 C-12 44.34 -12 43.68 -12 43 C-12.99 42.67 -13.98 42.34 -15 42 C-16.824 40.152 -16.824 40.152 -18.688 37.938 C-19.31 37.204 -19.933 36.471 -20.574 35.715 C-21.045 35.149 -21.515 34.583 -22 34 C-18.306 34 -16.222 35.282 -13 37 C-13.825 36.216 -14.65 35.433 -15.5 34.625 C-18 32 -18 32 -18 30 Z " fill="#C1BCBC" transform="translate(194,36)"/>
<path d="M0 0 C-3.96 1.98 -3.96 1.98 -8 4 C-8 4.66 -8 5.32 -8 6 C-8.99 6.495 -8.99 6.495 -10 7 C-9.711 8.258 -9.422 9.516 -9.125 10.812 C-8.881 11.874 -8.881 11.874 -8.633 12.957 C-8.02 15.277 -8.02 15.277 -6 18 C-8.562 18.5 -8.562 18.5 -12 18 C-15.544 15.284 -18.398 12.153 -19.617 7.793 C-19.75 5.688 -19.75 5.688 -19 2 C-13.804 -2.474 -5.813 -3.875 0 0 Z " fill="#A8A1A2" transform="translate(104,81)"/>
<path d="M0 0 C2 0.812 2 0.812 3.25 2.875 C3.498 3.514 3.745 4.154 4 4.812 C3.01 5.142 2.02 5.472 1 5.812 C0.67 5.153 0.34 4.492 0 3.812 C-2.64 4.142 -5.28 4.472 -8 4.812 C-3.065 -0.287 -3.065 -0.287 0 0 Z M-10 4.812 C-9.34 5.142 -8.68 5.472 -8 5.812 C-8.99 5.812 -9.98 5.812 -11 5.812 C-10.67 5.483 -10.34 5.153 -10 4.812 Z M-13 6.812 C-12.34 7.142 -11.68 7.472 -11 7.812 C-11.99 8.803 -12.98 9.792 -14 10.812 C-14.66 10.483 -15.32 10.153 -16 9.812 C-15.01 8.822 -14.02 7.833 -13 6.812 Z M-17 10.812 C-17 11.803 -17 12.792 -17 13.812 C-17.99 14.307 -17.99 14.307 -19 14.812 C-18.34 13.492 -17.68 12.172 -17 10.812 Z M-21 15.812 C-21 18.812 -21 18.812 -21 18.812 Z M-24 18.812 C-23.34 18.812 -22.68 18.812 -22 18.812 C-22.33 19.369 -22.66 19.926 -23 20.5 C-24.259 23.412 -24.658 24.669 -24 27.812 C-21.453 31.037 -18.674 33.999 -14.949 35.809 C-12.698 36.968 -11.623 38.208 -10.062 40.188 C-6.812 44.136 -3.253 46.977 1 49.812 C1 50.472 1 51.132 1 51.812 C1.66 51.153 2.32 50.493 3 49.812 C1.68 48.493 0.36 47.172 -1 45.812 C-0.67 45.153 -0.34 44.493 0 43.812 C1.173 44.931 2.338 46.058 3.5 47.188 C4.15 47.814 4.799 48.44 5.469 49.086 C7 50.812 7 50.812 7 52.812 C-0.75 52.938 -0.75 52.938 -3 51.812 C-3 51.153 -3 50.493 -3 49.812 C-3.577 49.544 -4.155 49.276 -4.75 49 C-7.056 47.783 -9.021 46.509 -11 44.812 C-11 44.153 -11 43.493 -11 42.812 C-11.99 42.483 -12.98 42.153 -14 41.812 C-14 41.153 -14 40.493 -14 39.812 C-14.99 39.483 -15.98 39.153 -17 38.812 C-18.754 37.035 -18.754 37.035 -20.562 34.875 C-22.331 32.779 -24.06 30.753 -26 28.812 C-26.315 24.476 -26.449 22.486 -24 18.812 Z " fill="#E1D7D7" transform="translate(200,35.1875)"/>
<path d="M0 0 C0.66 0 1.32 0 2 0 C1.993 0.688 1.987 1.376 1.98 2.086 C1.913 9.256 1.868 16.426 1.835 23.596 C1.822 26.271 1.8 28.946 1.774 31.622 C1.737 35.469 1.72 39.316 1.707 43.164 C1.692 44.358 1.676 45.552 1.66 46.782 C1.659 52.662 1.662 57.049 5 62 C4.01 62 3.02 62 2 62 C1.505 60.515 1.505 60.515 1 59 C0.34 59 -0.32 59 -1 59 C-1.023 51.455 -1.041 43.91 -1.052 36.365 C-1.057 32.862 -1.064 29.359 -1.075 25.856 C-1.088 21.832 -1.093 17.809 -1.098 13.785 C-1.105 11.89 -1.105 11.89 -1.113 9.956 C-1.113 8.795 -1.113 7.634 -1.114 6.438 C-1.117 4.896 -1.117 4.896 -1.12 3.322 C-1 1 -1 1 0 0 Z " fill="#A7A7A8" transform="translate(165,130)"/>
<path d="M0 0 C1.32 0.66 2.64 1.32 4 2 C3.34 2.33 2.68 2.66 2 3 C2.206 4.031 2.412 5.062 2.625 6.125 C2 10 2 10 -0.086 11.625 C-1.89 12.641 -3.704 13.639 -5.527 14.621 C-11.398 17.895 -13.213 23.427 -15.656 29.379 C-17.17 32.332 -18.352 33.987 -21 36 C-23.648 36.755 -26.056 37.317 -28.75 37.75 C-29.447 37.875 -30.145 38 -30.863 38.129 C-32.573 38.433 -34.286 38.719 -36 39 C-35 37 -35 37 -33.109 36.254 C-31.941 35.912 -31.941 35.912 -30.75 35.562 C-23.592 33.29 -19.943 30.65 -16.395 23.984 C-15.872 22.917 -15.35 21.85 -14.812 20.75 C-14.018 19.134 -14.018 19.134 -13.207 17.484 C-12.809 16.665 -12.41 15.845 -12 15 C-11.34 15 -10.68 15 -10 15 C-10 14.34 -10 13.68 -10 13 C-8.717 12.22 -7.397 11.5 -6.062 10.812 C-3.835 9.574 -3.835 9.574 -2 8 C-0.943 4.369 -0.943 4.369 -1 1 C-0.67 0.67 -0.34 0.34 0 0 Z M-37 39 C-35.794 41.332 -34.835 43.496 -34 46 C-34.66 46 -35.32 46 -36 46 C-36.33 43.69 -36.66 41.38 -37 39 Z " fill="#EBE2E2" transform="translate(140,54)"/>
<path d="M0 0 C1.072 0.248 2.145 0.495 3.25 0.75 C3.25 4.38 3.25 8.01 3.25 11.75 C2.92 11.75 2.59 11.75 2.25 11.75 C2.129 11.184 2.008 10.618 1.883 10.035 C1.715 9.302 1.548 8.568 1.375 7.812 C1.213 7.082 1.05 6.351 0.883 5.598 C0.42 3.543 0.42 3.543 -1.75 2.75 C-2.74 3.245 -2.74 3.245 -3.75 3.75 C-4.842 20.261 -4.842 20.261 -3.906 36.738 C-3.75 38.75 -3.75 38.75 -4.75 40.75 C-5.41 40.75 -6.07 40.75 -6.75 40.75 C-8.29 37.671 -7.955 34.42 -7.988 31.039 C-7.996 30.275 -8.004 29.51 -8.013 28.722 C-8.027 27.103 -8.037 25.484 -8.045 23.865 C-8.062 21.391 -8.106 18.919 -8.15 16.445 C-8.161 14.872 -8.169 13.299 -8.176 11.727 C-8.193 10.988 -8.211 10.249 -8.229 9.488 C-8.214 6.036 -7.985 4.079 -5.958 1.236 C-3.75 -0.25 -3.75 -0.25 0 0 Z " fill="#4F2325" transform="translate(146.75,150.25)"/>
<path d="M0 0 C0.99 0.33 1.98 0.66 3 1 C2.67 1.33 2.34 1.66 2 2 C1.827 4.062 1.722 6.129 1.643 8.197 C1.617 8.844 1.59 9.492 1.563 10.159 C1.507 11.57 1.452 12.982 1.4 14.393 C1.316 16.635 1.226 18.877 1.133 21.119 C0.872 27.495 0.622 33.871 0.378 40.248 C0.228 44.146 0.07 48.044 -0.093 51.942 C-0.153 53.421 -0.21 54.9 -0.264 56.38 C-0.556 64.406 -1.04 72.179 -3 80 C-3.66 79.67 -4.32 79.34 -5 79 C-4.868 78.216 -4.736 77.431 -4.6 76.623 C-2.484 62.24 -2.372 47.728 -1.994 33.219 C-1.845 27.515 -1.687 21.811 -1.521 16.107 C-1.466 14.123 -1.416 12.14 -1.367 10.156 C-1.333 8.966 -1.3 7.777 -1.265 6.551 C-1.238 5.5 -1.211 4.449 -1.183 3.366 C-1 1 -1 1 0 0 Z " fill="#5E4042" transform="translate(249,116)"/>
<path d="M0 0 C2 -0.043 4 -0.041 6 0 C7 1 7 1 7.098 2.99 C7.086 3.849 7.074 4.709 7.062 5.594 C7.055 6.542 7.047 7.491 7.039 8.469 C7.013 10.458 6.987 12.448 6.961 14.438 C6.913 20.388 7.22 26.099 8 32 C9.98 32 11.96 32 14 32 C14.33 31.34 14.66 30.68 15 30 C15.66 30.33 16.32 30.66 17 31 C16.67 31.99 16.34 32.98 16 34 C14.566 34.25 13.127 34.474 11.688 34.688 C10.887 34.815 10.086 34.943 9.262 35.074 C7 35 7 35 5.27 33.832 C2.557 29.918 2.918 25.416 3.121 20.824 C3.169 19.667 3.218 18.51 3.268 17.318 C3.324 16.12 3.38 14.922 3.438 13.688 C3.49 12.47 3.542 11.252 3.596 9.998 C3.725 6.998 3.86 3.999 4 1 C2.35 1.33 0.7 1.66 -1 2 C-0.67 1.34 -0.34 0.68 0 0 Z " fill="#562E30" transform="translate(114,159)"/>
<path d="M0 0 C1.32 1.32 2.64 2.64 4 4 C3.01 4.495 3.01 4.495 2 5 C2.017 5.584 2.034 6.169 2.051 6.771 C2.226 12.837 2.386 18.904 2.537 24.971 C2.596 27.237 2.658 29.503 2.724 31.769 C2.818 35.02 2.898 38.272 2.977 41.523 C3.009 42.541 3.041 43.559 3.074 44.608 C3.104 46.019 3.104 46.019 3.135 47.458 C3.169 48.704 3.169 48.704 3.203 49.975 C3 52 3 52 1 54 C-1.59 50.13 -1.259 46.098 -1.188 41.625 C-1.181 40.781 -1.175 39.937 -1.168 39.067 C-1.021 26.042 -0.49 13.017 0 0 Z M3 55 C5 56 5 56 5 56 Z " fill="#DED4D4" transform="translate(167,136)"/>
<path d="M0 0 C2 -0.043 4 -0.041 6 0 C7.786 1.786 7 4.592 7 7 C7.33 7.66 7.66 8.32 8 9 C8.089 10.358 8.118 11.721 8.114 13.083 C8.113 13.923 8.113 14.764 8.113 15.63 C8.108 16.539 8.103 17.447 8.098 18.383 C8.096 19.312 8.095 20.242 8.093 21.199 C8.088 24.174 8.075 27.15 8.062 30.125 C8.057 32.139 8.053 34.154 8.049 36.168 C8.038 41.112 8.021 46.056 8 51 C7.67 51 7.34 51 7 51 C7 37.8 7 24.6 7 11 C4.69 11 2.38 11 0 11 C-0.33 14.3 -0.66 17.6 -1 21 C-1.33 21 -1.66 21 -2 21 C-2 17.04 -2 13.08 -2 9 C-1.34 8.67 -0.68 8.34 0 8 C-0.66 7.34 -1.32 6.68 -2 6 C-1.646 3.737 -1.025 2.049 0 0 Z " fill="#CAA5A6" transform="translate(179,130)"/>
<path d="M0 0 C0 0.66 0 1.32 0 2 C0.474 2.412 0.949 2.825 1.438 3.25 C4.045 6.17 4.041 9.489 3.937 13.315 C3.759 15.946 3.516 18.564 3.25 21.188 C3.175 22.089 3.1 22.991 3.023 23.92 C2.938 24.786 2.853 25.651 2.766 26.543 C2.691 27.327 2.617 28.111 2.54 28.919 C1.899 31.388 0.928 32.379 -1 34 C-1.368 24.534 -0.229 15.361 1 6 C-1.64 6 -4.28 6 -7 6 C-7.33 4.35 -7.66 2.7 -8 1 C-4.933 -0.862 -3.403 -1.215 0 0 Z " fill="#593234" transform="translate(34,129)"/>
<path d="M0 0 C3.373 1.396 5.042 2.924 7 6 C9.802 14.405 8.613 24.243 5.168 32.242 C4 34 4 34 1 35 C-0.5 33.812 -0.5 33.812 -2 32 C-2.188 29.312 -2.188 29.312 -2 27 C-0.02 26.34 1.96 25.68 4 25 C4 24.072 4 23.144 4 22.188 C4 16 4 16 4.625 13.688 C5.358 8.432 2.784 4.303 0 0 Z M1 16 C3 17 3 17 3 17 Z " fill="#562C2E" transform="translate(135,105)"/>
<path d="M0 0 C1.98 0.66 3.96 1.32 6 2 C3.997 3.008 1.995 4.002 -0.043 4.938 C-10.417 10.077 -16.753 19.56 -23 29 C-23.66 28.67 -24.32 28.34 -25 28 C-24.47 23.492 -22.748 20.58 -20 17 C-19.34 17 -18.68 17 -18 17 C-17.773 16.443 -17.546 15.886 -17.312 15.312 C-13.898 9.296 -7.9 5.373 -2 2 C-1.34 2 -0.68 2 0 2 C0 1.34 0 0.68 0 0 Z " fill="#7E7C7F" transform="translate(192,31)"/>
<path d="M0 0 C0.33 0 0.66 0 1 0 C1 4.62 1 9.24 1 14 C1.66 14 2.32 14 3 14 C3.103 15.072 3.206 16.145 3.312 17.25 C3.986 20.924 4.659 22.252 7 25 C7 25.66 7 26.32 7 27 C7.66 27 8.32 27 9 27 C9 27.66 9 28.32 9 29 C10.578 28.969 10.578 28.969 12.188 28.938 C15.327 28.989 17.969 29.265 21 30 C20.67 30.66 20.34 31.32 20 32 C9.92 32.395 9.92 32.395 6 30 C-0.267 23.442 -1.319 18.469 -1.188 9.75 C-1.187 8.922 -1.186 8.095 -1.186 7.242 C-1.141 1.141 -1.141 1.141 0 0 Z " fill="#4D2123" transform="translate(34,162)"/>
<path d="M0 0 C0.33 0 0.66 0 1 0 C1.638 9.728 -0.509 17.515 -6.938 25 C-9.68 27.966 -12.352 30.22 -16 32 C-16.99 31.67 -17.98 31.34 -19 31 C-18.481 30.599 -17.961 30.198 -17.426 29.785 C-12.096 25.44 -8.946 21.178 -6 15 C-5.47 14.02 -5.47 14.02 -4.93 13.02 C-3.592 10.115 -3.145 7.152 -2.562 4.023 C-2 2 -2 2 0 0 Z " fill="#7D7C80" transform="translate(244,68)"/>
<path d="M0 0 C0.743 0.083 1.485 0.165 2.25 0.25 C-0.436 2.936 -3.126 3.31 -6.75 4.25 C-3.427 0.312 -3.427 0.312 0 0 Z M-8.75 4.25 C-8.09 4.58 -7.43 4.91 -6.75 5.25 C-7.74 5.25 -8.73 5.25 -9.75 5.25 C-9.42 4.92 -9.09 4.59 -8.75 4.25 Z M-11.75 6.25 C-11.09 6.58 -10.43 6.91 -9.75 7.25 C-11.73 8.24 -11.73 8.24 -13.75 9.25 C-13.09 8.26 -12.43 7.27 -11.75 6.25 Z M-14.75 9.25 C-14.75 10.24 -14.75 11.23 -14.75 12.25 C-16.235 13.24 -16.235 13.24 -17.75 14.25 C-15.875 10.375 -15.875 10.375 -14.75 9.25 Z M-20.75 16.25 C-20.75 19.25 -20.75 19.25 -20.75 19.25 Z M-23.75 20.25 C-23.75 23.25 -23.75 23.25 -23.75 23.25 Z M-25.75 23.25 C-24.75 25.25 -24.75 25.25 -24.441 27.574 C-23.571 30.944 -22.058 32.541 -19.688 35.062 C-18.954 35.853 -18.221 36.643 -17.465 37.457 C-16.899 38.049 -16.333 38.64 -15.75 39.25 C-19.114 39.25 -20.151 38.631 -22.938 36.875 C-24.011 36.214 -24.011 36.214 -25.105 35.539 C-25.648 35.114 -26.191 34.688 -26.75 34.25 C-26.75 33.59 -26.75 32.93 -26.75 32.25 C-27.554 32.002 -28.359 31.755 -29.188 31.5 C-31.75 30.25 -31.75 30.25 -32.562 28.125 C-32.624 27.506 -32.686 26.888 -32.75 26.25 C-30.275 26.745 -30.275 26.745 -27.75 27.25 C-27.09 25.93 -26.43 24.61 -25.75 23.25 Z " fill="#A9A8A9" transform="translate(197.75,33.75)"/>
<path d="M0 0 C0.66 0.33 1.32 0.66 2 1 C-3 6 -3 6 -5.562 8.438 C-10.216 13.329 -13.121 18.966 -16 25 C-16.99 25 -17.98 25 -19 25 C-13.769 8.641 -13.769 8.641 -9 4 C-6.932 3.031 -4.882 2.272 -2.707 1.578 C-0.989 1.137 -0.989 1.137 0 0 Z " fill="#7D7C80" transform="translate(133,58)"/>
<path d="M0 0 C0.124 0.804 0.248 1.609 0.375 2.438 C0.581 3.283 0.787 4.129 1 5 C1.66 5.33 2.32 5.66 3 6 C2.959 6.784 2.918 7.567 2.875 8.375 C2.713 11.161 2.713 11.161 5 13 C7.571 13.648 7.571 13.648 10 14 C10 14.33 10 14.66 10 15 C4.821 15.518 4.821 15.518 2 15 C-1.432 11.304 -2.527 7.969 -3 3 C-4.65 4.32 -6.3 5.64 -8 7 C-7.75 4.125 -7.75 4.125 -7 1 C-4.159 -1.178 -3.468 -1.156 0 0 Z M-9 0 C-7 1 -7 1 -7 1 Z M-14 3 C-13.01 3.33 -12.02 3.66 -11 4 C-11.66 4 -12.32 4 -13 4 C-13 4.66 -13 5.32 -13 6 C-16.215 7.607 -19.436 7.057 -23 7 C-23.33 6.34 -23.66 5.68 -24 5 C-23.043 4.909 -23.043 4.909 -22.066 4.816 C-20.827 4.691 -20.827 4.691 -19.562 4.562 C-18.739 4.481 -17.915 4.4 -17.066 4.316 C-15.013 4.211 -15.013 4.211 -14 3 Z " fill="#4F2426" transform="translate(72,179)"/>
<path d="M0 0 C2.938 0.75 2.938 0.75 4.938 2.75 C5.188 5.75 5.188 5.75 4.938 8.75 C2.938 10.75 2.938 10.75 -0.562 11.062 C-2.295 10.908 -2.295 10.908 -4.062 10.75 C-6.363 7.3 -6.494 5.804 -6.062 1.75 C-3.062 -0.25 -3.062 -0.25 0 0 Z " fill="#EEE9E9" transform="translate(135.0625,121.25)"/>
<path d="M0 0 C3.914 1.269 5.791 2.512 8 6 C7.01 6 6.02 6 5 6 C5.495 7.176 5.495 7.176 6 8.375 C7.274 12.994 7.169 17.242 7 22 C3.511 18.271 2.169 14.858 0.727 10.086 C-0.116 7.668 -1.361 5.951 -3 4 C-3 3.34 -3 2.68 -3 2 C-2.34 2 -1.68 2 -1 2 C-0.67 1.34 -0.34 0.68 0 0 Z " fill="#BFB5B5" transform="translate(227,28)"/>
<path d="M0 0 C10.322 2.334 17.601 5.402 24 14 C23.34 14.66 22.68 15.32 22 16 C17.993 15.59 16.329 13.399 13.641 10.547 C11.985 8.985 10.441 8 8.438 6.938 C4.852 4.917 2.747 2.997 0 0 Z " fill="#C1B1B1" transform="translate(123,24)"/>
<path d="M0 0 C0.99 0 1.98 0 3 0 C2.67 14.85 2.34 29.7 2 45 C0 43 0 43 -0.241 41.127 C-0.234 39.988 -0.234 39.988 -0.227 38.826 C-0.227 37.965 -0.227 37.104 -0.227 36.217 C-0.216 35.287 -0.206 34.357 -0.195 33.398 C-0.192 32.447 -0.19 31.495 -0.187 30.515 C-0.176 27.468 -0.15 24.422 -0.125 21.375 C-0.115 19.313 -0.106 17.25 -0.098 15.188 C-0.076 10.125 -0.041 5.062 0 0 Z " fill="#8A0E11" transform="translate(169,141)"/>
<path d="M0 0 C0.66 0.33 1.32 0.66 2 1 C1.34 1.66 0.68 2.32 0 3 C2.31 3.66 4.62 4.32 7 5 C6.988 5.615 6.977 6.23 6.965 6.863 C6.956 7.672 6.947 8.48 6.938 9.312 C6.926 10.113 6.914 10.914 6.902 11.738 C6.903 14.169 6.903 14.169 8 17 C7.477 19.234 7.477 19.234 6.625 21.75 C5.303 25.867 4.467 29.707 4 34 C3.67 34 3.34 34 3 34 C3.33 24.76 3.66 15.52 4 6 C1.36 6.33 -1.28 6.66 -4 7 C-4.33 5.35 -4.66 3.7 -5 2 C-2.625 0.938 -2.625 0.938 0 0 Z " fill="#4F2426" transform="translate(90,152)"/>
<path d="M0 0 C3.255 3.255 3.173 6.722 3.25 11.188 C3.201 16.376 2.591 21.415 0 26 C-0.99 26.33 -1.98 26.66 -3 27 C-4 26 -4 26 -4.25 23.375 C-4.005 20.069 -3.143 18.148 -1.734 15.211 C-0.124 10.363 -0.221 5.07 0 0 Z " fill="#9A9798" transform="translate(154,118)"/>
<path d="M0 0 C2.31 0.33 4.62 0.66 7 1 C7 15.19 7 29.38 7 44 C6.01 44 5.02 44 4 44 C3.875 38.25 3.875 38.25 5 36 C5.453 25.317 4.793 14.65 4 4 C2.68 4 1.36 4 0 4 C-0.33 3.01 -0.66 2.02 -1 1 C-0.67 0.67 -0.34 0.34 0 0 Z " fill="#8B0D10" transform="translate(179,140)"/>
<path d="M0 0 C3.591 0.625 6.806 1.582 10.188 2.938 C11.047 3.277 11.907 3.616 12.793 3.965 C15 5 15 5 17 7 C16.34 7 15.68 7 15 7 C14.67 7.99 14.34 8.98 14 10 C13.492 9.602 12.984 9.203 12.461 8.793 C8.461 5.714 4.631 3.084 0 1 C0 0.67 0 0.34 0 0 Z M11 5 C12 7 12 7 12 7 Z M17 7 C17.99 7.33 18.98 7.66 20 8 C19.01 8 18.02 8 17 8 C17 7.67 17 7.34 17 7 Z M20 9 C23.875 10.75 23.875 10.75 25 13 C21.125 11.25 21.125 11.25 20 9 Z M26 14 C27.32 14.99 28.64 15.98 30 17 C29.67 17.66 29.34 18.32 29 19 C27.5 17.625 27.5 17.625 26 16 C26 15.34 26 14.68 26 14 Z M30 19 C32.5 21.174 33.436 22.73 34 26 C31.5 23.826 30.564 22.27 30 19 Z M34 26 C34.66 26.66 35.32 27.32 36 28 C35.625 30.125 35.625 30.125 35 32 C34.67 30.02 34.34 28.04 34 26 Z M36 32 C38.429 35.644 38.162 37.712 38 42 C37.67 42 37.34 42 37 42 C36.67 38.7 36.34 35.4 36 32 Z " fill="#DBD0D1" transform="translate(212,21)"/>
<path d="M0 0 C0.717 -0.012 1.433 -0.024 2.172 -0.037 C6.319 -0.049 9.524 0.332 13.25 2.188 C13.25 2.517 13.25 2.848 13.25 3.188 C4.67 3.188 -3.91 3.188 -12.75 3.188 C-11.43 2.527 -10.11 1.867 -8.75 1.188 C-6.731 -0.831 -2.762 0.002 0 0 Z M-12.75 3.188 C-13.369 3.476 -13.987 3.765 -14.625 4.062 C-16.883 5.125 -16.883 5.125 -18.75 7.188 C-20.734 7.902 -22.733 8.574 -24.75 9.188 C-24.75 8.197 -24.75 7.207 -24.75 6.188 C-20.843 2.99 -17.68 2.898 -12.75 3.188 Z M-30.75 12.188 C-30.42 12.848 -30.09 13.508 -29.75 14.188 C-30.41 13.858 -31.07 13.527 -31.75 13.188 C-31.42 12.858 -31.09 12.527 -30.75 12.188 Z " fill="#52282A" transform="translate(95.75,17.8125)"/>
<path d="M0 0 C-0.076 3.181 -0.415 5.319 -2.52 7.77 C-5.939 10.844 -5.939 10.844 -8 12 C-8.99 11.67 -9.98 11.34 -11 11 C-11.25 7.688 -11.25 7.688 -11 4 C-7.729 0.616 -4.662 0 0 0 Z " fill="#F7F4F4" transform="translate(222,177)"/>
<path d="M0 0 C0.33 0 0.66 0 1 0 C1.33 11.55 1.66 23.1 2 35 C4.64 35 7.28 35 10 35 C10 34.01 10 33.02 10 32 C11.65 32 13.3 32 15 32 C13.75 35.653 13.329 36.781 10 39 C7.809 39.117 7.809 39.117 5.438 38.875 C4.652 38.811 3.867 38.746 3.059 38.68 C1 38 1 38 -0.13 36.447 C-1.352 33.011 -1.136 29.758 -0.977 26.172 C-0.952 25.423 -0.927 24.674 -0.901 23.902 C-0.819 21.518 -0.722 19.134 -0.625 16.75 C-0.567 15.13 -0.509 13.51 -0.453 11.891 C-0.313 7.927 -0.16 3.963 0 0 Z " fill="#A76B6D" transform="translate(171,152)"/>
<path d="M0 0 C0.33 0 0.66 0 1 0 C1.074 5.872 1.129 11.743 1.165 17.615 C1.18 19.611 1.2 21.607 1.226 23.603 C1.263 26.478 1.28 29.352 1.293 32.227 C1.308 33.114 1.324 34.002 1.34 34.917 C1.341 40.023 0.914 43.611 -2 48 C-5.089 50.059 -5.709 50.239 -9.188 50.125 C-10.446 50.084 -11.704 50.042 -13 50 C-10.812 48.866 -8.7 47.893 -6.375 47.062 C-3.692 46.115 -3.692 46.115 -2 43 C-0.72 38.481 -0.78 33.862 -0.684 29.199 C-0.652 27.945 -0.652 27.945 -0.621 26.665 C-0.555 24.006 -0.496 21.347 -0.438 18.688 C-0.394 16.88 -0.351 15.072 -0.307 13.264 C-0.2 8.843 -0.098 4.421 0 0 Z M-18 45 C-17.01 45.99 -16.02 46.98 -15 48 C-15.99 47.67 -16.98 47.34 -18 47 C-18 46.34 -18 45.68 -18 45 Z M-15 48 C-13 49 -13 49 -13 49 Z " fill="#F5EFEF" transform="translate(187,143)"/>
<path d="M0 0 C1.454 0.031 1.454 0.031 2.938 0.062 C2.831 0.631 2.724 1.199 2.613 1.785 C1.711 7.598 2.174 10.867 4.938 16.062 C1.669 15.82 0.642 14.787 -1.812 12.5 C-4.788 8.739 -4.536 5.721 -4.062 1.062 C-3.062 0.062 -3.062 0.062 0 0 Z " fill="#C2B1B1" transform="translate(89.0625,81.9375)"/>
<path d="M0 0 C0.66 0 1.32 0 2 0 C2.766 7.818 0.039 13.88 -3 21 C-3.33 21 -3.66 21 -4 21 C-4.545 13.041 -3.489 7.181 0 0 Z M4 19 C4 19.99 4 20.98 4 22 C2 24 2 24 -1.125 24.125 C-2.548 24.063 -2.548 24.063 -4 24 C-4 23.67 -4 23.34 -4 23 C-2.577 22.567 -2.577 22.567 -1.125 22.125 C2.052 21.232 2.052 21.232 4 19 Z M-6 21 C-5.34 21 -4.68 21 -4 21 C-4.33 21.66 -4.66 22.32 -5 23 C-5.33 22.34 -5.66 21.68 -6 21 Z " fill="#C3BDBD" transform="translate(152,123)"/>
<path d="M0 0 C2.698 1.013 3.805 1.65 5.23 4.207 C5.546 5.067 5.862 5.927 6.188 6.812 C6.673 8.091 6.673 8.091 7.168 9.395 C8.827 14.589 9.13 19.382 9.062 24.812 C9.058 25.505 9.053 26.198 9.049 26.912 C9.037 28.608 9.019 30.304 9 32 C8.01 32.495 8.01 32.495 7 33 C6.939 31.819 6.879 30.638 6.816 29.422 C6.732 27.865 6.647 26.307 6.562 24.75 C6.523 23.973 6.484 23.195 6.443 22.395 C6.401 21.64 6.36 20.886 6.316 20.109 C6.28 19.418 6.243 18.727 6.205 18.015 C5.777 13.81 4.392 10.606 2.438 6.875 C0 2.221 0 2.221 0 0 Z " fill="#52292C" transform="translate(224,34)"/>
<path d="M0 0 C2 1 2 1 2 1 Z M3 0 C4.031 0.743 5.062 1.485 6.125 2.25 C8.521 3.973 10.944 5.61 13.438 7.188 C14.283 7.786 15.129 8.384 16 9 C16 9.66 16 10.32 16 11 C17.65 11.33 19.3 11.66 21 12 C21 12.33 21 12.66 21 13 C13.192 12.748 8.409 10.375 2 6 C2.66 5.34 3.32 4.68 4 4 C3.681 1.892 3.681 1.892 3 0 Z " fill="#B3A9AA" transform="translate(181,76)"/>
<path d="M0 0 C0.66 0.66 1.32 1.32 2 2 C1.34 2 0.68 2 0 2 C0 1.34 0 0.68 0 0 Z M6 4 C8.5 5.375 8.5 5.375 11 7 C11 7.66 11 8.32 11 9 C11.578 9.082 12.155 9.165 12.75 9.25 C15.628 10.209 16.905 11.84 19 14 C20.052 14.495 20.052 14.495 21.125 15 C23.492 16.262 24.022 17.556 25 20 C19.279 18.609 15.888 15.711 11.625 11.875 C10.984 11.312 10.344 10.748 9.684 10.168 C8.115 8.787 6.557 7.395 5 6 C5.33 5.34 5.66 4.68 6 4 Z " fill="#552E30" transform="translate(85,102)"/>
<path d="M0 0 C0.531 0.481 1.062 0.962 1.609 1.457 C4.595 3.384 6.724 3.496 10.25 3.688 C11.328 3.753 12.405 3.819 13.516 3.887 C14.335 3.924 15.155 3.961 16 4 C16.33 4.99 16.66 5.98 17 7 C16 8 16 8 12.375 8.25 C7.878 8.177 4.884 7.299 1 5 C0.062 2.312 0.062 2.312 0 0 Z M8 1 C10.475 1.495 10.475 1.495 13 2 C11.68 2.33 10.36 2.66 9 3 C8.67 2.34 8.34 1.68 8 1 Z " fill="#BCB4B4" transform="translate(165,189)"/>
<path d="M0 0 C1.98 0.99 1.98 0.99 4 2 C3 5 3 5 1 8 C0.67 5.36 0.34 2.72 0 0 Z M4 5 C7.094 9.641 7.197 14.498 7 20 C6.032 23.243 4.714 26.087 3 29 C1.627 26.254 2.646 24.79 3.511 21.988 C4.324 18.685 4.185 15.447 4.125 12.062 C4.111 11.037 4.111 11.037 4.098 9.99 C4.074 8.327 4.039 6.663 4 5 Z M-3 27 C-1.515 27.99 -1.515 27.99 0 29 C0.66 29.33 1.32 29.66 2 30 C1 31 1 31 -1.562 31.062 C-2.769 31.032 -2.769 31.032 -4 31 C-3.67 29.68 -3.34 28.36 -3 27 Z " fill="#A8A8A9" transform="translate(152,115)"/>
<path d="M0 0 C0.557 0.227 1.114 0.454 1.688 0.688 C0.037 1.017 -1.612 1.347 -3.312 1.688 C-3.312 2.347 -3.312 3.008 -3.312 3.688 C-4.302 3.688 -5.293 3.688 -6.312 3.688 C-6.581 4.863 -6.849 6.039 -7.125 7.25 C-8.127 11.294 -9.578 14.904 -11.312 18.688 C-11.972 18.028 -12.632 17.368 -13.312 16.688 C-13.204 10.18 -11.952 7.222 -7.312 2.688 C-3.188 -0.431 -3.188 -0.431 0 0 Z M-6.312 5.688 C-4.312 6.688 -4.312 6.688 -4.312 6.688 Z " fill="#B0A2A3" transform="translate(122.3125,55.3125)"/>
<path d="M0 0 C0.66 0.33 1.32 0.66 2 1 C1.299 1.534 0.597 2.067 -0.125 2.617 C-9.838 10.162 -9.838 10.162 -17 20 C-16.801 23.229 -16.801 23.229 -16 26 C-16.99 25.34 -17.98 24.68 -19 24 C-19.643 20.619 -19.079 19.141 -17.383 16.133 C-12.346 9.422 -7.292 4.323 0 0 Z M-16 26 C-14.02 26.99 -14.02 26.99 -12 28 C-12 28.99 -12 29.98 -12 31 C-13.32 29.35 -14.64 27.7 -16 26 Z " fill="#F3ECEC" transform="translate(194,39)"/>
<path d="M0 0 C0.99 0.495 0.99 0.495 2 1 C1.67 1.66 1.34 2.32 1 3 C0.67 2.01 0.34 1.02 0 0 Z M0 3 C0.33 3.66 0.66 4.32 1 5 C2.895 5.465 2.895 5.465 5.062 5.625 C6.362 5.749 7.661 5.873 9 6 C9.33 6.99 9.66 7.98 10 9 C9.01 10.485 9.01 10.485 8 12 C7.34 12 6.68 12 6 12 C5.67 13.32 5.34 14.64 5 16 C5 14.35 5 12.7 5 11 C3.35 10.67 1.7 10.34 0 10 C0 7.69 0 5.38 0 3 Z " fill="#FCFBFB" transform="translate(168,130)"/>
<path d="M0 0 C1.98 0.66 3.96 1.32 6 2 C6 2.66 6 3.32 6 4 C6.99 4.33 7.98 4.66 9 5 C8.34 5.66 7.68 6.32 7 7 C7 6.34 7 5.68 7 5 C6.402 4.732 5.804 4.464 5.188 4.188 C3.028 3.015 1.642 1.806 0 0 Z M9 6 C13.455 7.98 13.455 7.98 18 10 C18 10.66 18 11.32 18 12 C19.454 12.433 19.454 12.433 20.938 12.875 C24 14 24 14 25 16 C23.541 15.523 22.083 15.043 20.625 14.562 C19.813 14.296 19.001 14.029 18.164 13.754 C16 13 16 13 14 12 C14 11.34 14 10.68 14 10 C12.02 9.34 10.04 8.68 8 8 C8.33 7.34 8.66 6.68 9 6 Z M25 16 C26.32 16.33 27.64 16.66 29 17 C28.01 17.33 27.02 17.66 26 18 C25.67 17.34 25.34 16.68 25 16 Z " fill="#D5C9C9" transform="translate(104,120)"/>
<path d="M0 0 C2.31 1.65 4.62 3.3 7 5 C6.01 5.495 6.01 5.495 5 6 C3.293 4.719 1.626 3.382 0 2 C0 1.34 0 0.68 0 0 Z M7 6 C7.66 6 8.32 6 9 6 C9 6.66 9 7.32 9 8 C8.34 8 7.68 8 7 8 C7 7.34 7 6.68 7 6 Z M10 7 C10.831 7.349 11.663 7.699 12.52 8.059 C13.606 8.514 14.693 8.969 15.812 9.438 C16.891 9.89 17.97 10.342 19.082 10.809 C23.431 12.584 27.009 13.238 31.688 13.562 C33.457 13.688 33.457 13.688 35.262 13.816 C36.617 13.907 36.617 13.907 38 14 C38 14.33 38 14.66 38 15 C29.725 15.318 22.655 15.325 15 12 C13.989 11.608 12.979 11.216 11.938 10.812 C11.298 10.544 10.659 10.276 10 10 C10 9.01 10 8.02 10 7 Z " fill="#F3ECEC" transform="translate(183,94)"/>
<path d="M0 0 C0 0.66 0 1.32 0 2 C0.495 2.495 0.99 2.99 1.5 3.5 C1.995 3.995 2.49 4.49 3 5 C3 5.66 3 6.32 3 7 C-0.3 6.67 -3.6 6.34 -7 6 C-7.33 4.35 -7.66 2.7 -8 1 C-4.933 -0.862 -3.403 -1.215 0 0 Z " fill="#532628" transform="translate(34,129)"/>
<path d="M0 0 C0.66 0 1.32 0 2 0 C2.186 0.959 2.186 0.959 2.375 1.938 C2.684 2.958 2.684 2.958 3 4 C3.66 4.33 4.32 4.66 5 5 C4.959 5.784 4.918 6.567 4.875 7.375 C4.713 10.161 4.713 10.161 7 12 C9.571 12.648 9.571 12.648 12 13 C12 13.33 12 13.66 12 14 C9.075 14.293 6.849 14.511 4 14 C0.73 10.73 -0.218 8.135 -0.25 3.625 C-0.168 2.429 -0.085 1.232 0 0 Z " fill="#552E30" transform="translate(70,180)"/>
<path d="M0 0 C2.902 2.65 3.891 4.602 4.203 8.602 C4.303 15.06 4.159 21.202 1 27 C-0.485 27.99 -0.485 27.99 -2 29 C-1.505 27.824 -1.01 26.649 -0.5 25.438 C2.185 17.472 1.926 8.137 0 0 Z " fill="#674D4F" transform="translate(274,160)"/>
<path d="M0 0 C2 2 4 4 6 6 C5.01 7.485 5.01 7.485 4 9 C3.835 9.825 3.67 10.65 3.5 11.5 C3 14 3 14 1 17 C0.639 14.355 0.286 11.709 -0.062 9.062 C-0.166 8.308 -0.27 7.553 -0.377 6.775 C-0.627 4.855 -0.818 2.928 -1 1 C-0.67 0.67 -0.34 0.34 0 0 Z M6 6 C8 7 8 7 8 7 Z " fill="#B1A3A4" transform="translate(123,37)"/>
<path d="M0 0 C-0.33 0.99 -0.66 1.98 -1 3 C-3.066 3.949 -3.066 3.949 -5.562 4.688 C-6.389 4.939 -7.215 5.19 -8.066 5.449 C-8.704 5.631 -9.343 5.813 -10 6 C-9.67 5.01 -9.34 4.02 -9 3 C-2.889 0 -2.889 0 0 0 Z M-10 6 C-10 6.66 -10 7.32 -10 8 C-12.375 9.688 -12.375 9.688 -15 11 C-15.66 10.67 -16.32 10.34 -17 10 C-14.84 6.76 -13.884 6 -10 6 Z M-19 11 C-18.01 11.495 -18.01 11.495 -17 12 C-17.99 12.495 -17.99 12.495 -19 13 C-19 12.34 -19 11.68 -19 11 Z M-21 13 C-20.34 13.33 -19.68 13.66 -19 14 C-20.485 14.99 -20.485 14.99 -22 16 C-21.67 15.01 -21.34 14.02 -21 13 Z M-23 16 C-23 16.99 -23 17.98 -23 19 C-23.99 19.495 -23.99 19.495 -25 20 C-24.34 18.68 -23.68 17.36 -23 16 Z " fill="#DACECE" transform="translate(189,24)"/>
<path d="M0 0 C7.75 0.75 7.75 0.75 10 3 C6.281 2.493 3.265 1.884 0 0 Z M12 2 C15.465 3.98 15.465 3.98 19 6 C18.01 6.495 18.01 6.495 17 7 C14.64 6.064 12.304 5.067 10 4 C10.66 3.34 11.32 2.68 12 2 Z M19 7 C23.239 8.06 25.919 8.919 29 12 C27.02 12.99 27.02 12.99 25 14 C23.02 11.69 21.04 9.38 19 7 Z " fill="#F0E7E7" transform="translate(121,23)"/>
<path d="M0 0 C2 -0.043 4 -0.041 6 0 C7.877 1.877 7.217 4.929 7.25 7.438 C7.289 9.199 7.289 9.199 7.328 10.996 C7.22 11.987 7.112 12.979 7 14 C6.01 14.66 5.02 15.32 4 16 C4 11.05 4 6.1 4 1 C2.35 1.33 0.7 1.66 -1 2 C-0.67 1.34 -0.34 0.68 0 0 Z " fill="#562F31" transform="translate(114,159)"/>
<path d="M0 0 C0.66 0.289 1.32 0.578 2 0.875 C5.625 2.234 9.233 3.106 13 4 C13 4.66 13 5.32 13 6 C15.64 6 18.28 6 21 6 C17.643 7.937 14.902 9 11 9 C6.47 6.708 2.828 4.241 0 0 Z " fill="#CFC2C3" transform="translate(183,93)"/>
<path d="M0 0 C1 2 1 2 0.062 5.125 C-0.288 6.074 -0.639 7.022 -1 8 C-1.66 8 -2.32 8 -3 8 C-3.083 8.536 -3.165 9.073 -3.25 9.625 C-4.982 15.109 -8.421 18.693 -13 22 C-13.66 21.67 -14.32 21.34 -15 21 C-12.372 16.814 -9.718 13.327 -6 10 C-5.34 10 -4.68 10 -4 10 C-3.897 9.464 -3.794 8.927 -3.688 8.375 C-2.819 5.375 -1.444 2.762 0 0 Z " fill="#563133" transform="translate(231,70)"/>
<path d="M0 0 C1.98 0.99 1.98 0.99 4 2 C3.01 2.495 3.01 2.495 2 3 C1.34 2.67 0.68 2.34 0 2 C0 1.34 0 0.68 0 0 Z M4 3 C6.169 3.506 8 4 10 5 C10 5.66 10 6.32 10 7 C8.02 6.34 6.04 5.68 4 5 C4 4.34 4 3.68 4 3 Z M11 6 C11.33 6.66 11.66 7.32 12 8 C13.979 8.727 15.98 9.398 18 10 C18 10.99 18 11.98 18 13 C17.67 12.34 17.34 11.68 17 11 C15.021 10.273 13.02 9.602 11 9 C11 8.01 11 7.02 11 6 Z M19 12 C21.475 12.99 21.475 12.99 24 14 C24 14.33 24 14.66 24 15 C21.69 15 19.38 15 17 15 C17.66 14.01 18.32 13.02 19 12 Z " fill="#F3ECEC" transform="translate(126,135)"/>
<path d="M0 0 C0.784 0.041 1.567 0.083 2.375 0.125 C3 2.5 3 2.5 3.375 5.125 C2.715 5.785 2.055 6.445 1.375 7.125 C-1.25 6.75 -1.25 6.75 -3.625 6.125 C-4.25 4.25 -4.25 4.25 -4.625 2.125 C-2.625 0.125 -2.625 0.125 0 0 Z " fill="#9F4547" transform="translate(181.625,130.875)"/>
<path d="M0 0 C0.33 0 0.66 0 1 0 C1 3.3 1 6.6 1 10 C1.66 10 2.32 10 3 10 C3.195 11.77 3.381 13.541 3.562 15.312 C3.667 16.299 3.771 17.285 3.879 18.301 C4 21 4 21 3 24 C0.47 18.096 -0.123 13.11 -0.062 6.688 C-0.053 5.433 -0.044 4.179 -0.035 2.887 C-0.018 1.458 -0.018 1.458 0 0 Z " fill="#623F41" transform="translate(58,43)"/>
<path d="M0 0 C1.485 0.99 1.485 0.99 3 2 C3 2.66 3 3.32 3 4 C3.66 4 4.32 4 5 4 C4.67 5.32 4.34 6.64 4 8 C2.223 5.334 1.125 2.972 0 0 Z M5 7 C5.33 7.66 5.66 8.32 6 9 C6.99 9 7.98 9 9 9 C9.66 10.65 10.32 12.3 11 14 C8.133 13.427 7.139 13.139 5 11 C5 9.68 5 8.36 5 7 Z M11 14 C11.33 14 11.66 14 12 14 C12 16.97 12 19.94 12 23 C11.67 23 11.34 23 11 23 C11 20.03 11 17.06 11 14 Z " fill="#5A3234" transform="translate(201,33)"/>
<path d="M0 0 C2.375 -0.125 2.375 -0.125 5 0 C5.66 0.66 6.32 1.32 7 2 C6.625 4.625 6.625 4.625 6 7 C5.01 7.33 4.02 7.66 3 8 C1.5 6.812 1.5 6.812 0 5 C-0.188 2.312 -0.188 2.312 0 0 Z " fill="#662F31" transform="translate(133,132)"/>
<path d="M0 0 C1.089 2.831 0.961 4.165 0.25 7.188 C-0.162 8.116 -0.575 9.044 -1 10 C-1.99 10.33 -2.98 10.66 -4 11 C-5.386 12.623 -6.726 14.287 -8 16 C-8.66 15.67 -9.32 15.34 -10 15 C-9.165 14.041 -9.165 14.041 -8.312 13.062 C-5.857 9.81 -3.968 6.476 -2.051 2.891 C-1 1 -1 1 0 0 Z " fill="#5F3739" transform="translate(69,166)"/>
<path d="M0 0 C7.178 1.623 13.018 3.663 19 8 C13.078 8 6.17 6.095 1.855 1.93 C1.243 1.293 0.631 0.656 0 0 Z " fill="#D5C3C3" transform="translate(123,24)"/>
<path d="M0 0 C0.312 2.25 0.312 2.25 0 5 C-2.5 7.312 -2.5 7.312 -5 9 C-5.66 8.67 -6.32 8.34 -7 8 C-6.34 7.01 -5.68 6.02 -5 5 C-5.959 2.669 -5.959 2.669 -9 1 C-5.942 0.456 -3.112 0 0 0 Z " fill="#51282A" transform="translate(91,184)"/>
<path d="M0 0 C1.671 0.681 1.671 0.681 3.375 1.375 C8.144 3.178 12.989 4.127 18 5 C18 5.33 18 5.66 18 6 C11.198 6.376 6.243 5.775 0 3 C0 2.01 0 1.02 0 0 Z " fill="#4F2426" transform="translate(90,97)"/>
<path d="M0 0 C2 0.812 2 0.812 3.25 2.875 C3.498 3.514 3.745 4.154 4 4.812 C3.01 5.142 2.02 5.472 1 5.812 C0.67 5.153 0.34 4.492 0 3.812 C-2.64 4.142 -5.28 4.472 -8 4.812 C-3.065 -0.287 -3.065 -0.287 0 0 Z M-10 4.812 C-9.34 5.142 -8.68 5.472 -8 5.812 C-8.99 5.812 -9.98 5.812 -11 5.812 C-10.67 5.483 -10.34 5.153 -10 4.812 Z " fill="#DAD0D0" transform="translate(200,35.1875)"/>
<path d="M0 0 C0.33 1.65 0.66 3.3 1 5 C-0.32 5.99 -1.64 6.98 -3 8 C-3.66 7.67 -4.32 7.34 -5 7 C-5 5.68 -5 4.36 -5 3 C-5.99 2.67 -6.98 2.34 -8 2 C-2.25 0 -2.25 0 0 0 Z " fill="#562F31" transform="translate(158,183)"/>
<path d="M0 0 C3 1 3 1 5 3 C5.125 6.625 5.125 6.625 5 10 C4.67 10 4.34 10 4 10 C4 8.02 4 6.04 4 4 C3.374 4.3 2.747 4.601 2.102 4.91 C1.284 5.29 0.467 5.671 -0.375 6.062 C-1.187 6.445 -1.999 6.828 -2.836 7.223 C-3.55 7.479 -4.264 7.736 -5 8 C-5.66 7.67 -6.32 7.34 -7 7 C-5.377 5.291 -3.707 3.626 -2 2 C-1.34 2 -0.68 2 0 2 C0 1.34 0 0.68 0 0 Z " fill="#5E3739" transform="translate(185,20)"/>
<path d="M0 0 C10.558 1.927 10.558 1.927 15 4 C15 4.66 15 5.32 15 6 C15.99 6.33 16.98 6.66 18 7 C18.688 9.062 18.688 9.062 19 11 C18.416 10.385 18.416 10.385 17.82 9.758 C13.508 5.604 10.048 4.166 4.137 3.324 C2 3 2 3 0 2 C0 1.34 0 0.68 0 0 Z " fill="#F3ECEC" transform="translate(140,106)"/>
<path d="M0 0 C1.65 0 3.3 0 5 0 C2.538 3.815 2.538 3.815 -0.188 4.75 C-0.786 4.832 -1.384 4.915 -2 5 C-1.34 3.35 -0.68 1.7 0 0 Z M-4 5 C-3.34 5.33 -2.68 5.66 -2 6 C-3.485 6.99 -3.485 6.99 -5 8 C-4.67 7.01 -4.34 6.02 -4 5 Z M-9 7 C-8.01 7.99 -7.02 8.98 -6 10 C-6.99 11.32 -7.98 12.64 -9 14 C-9.66 13.67 -10.32 13.34 -11 13 C-10.67 12.381 -10.34 11.763 -10 11.125 C-8.858 9.09 -8.858 9.09 -9 7 Z " fill="#48181A" transform="translate(174,26)"/>
<path d="M0 0 C0.33 0.99 0.66 1.98 1 3 C0.67 3.33 0.34 3.66 0 4 C-0.386 9.019 0.023 11.907 3 16 C1.125 15.75 1.125 15.75 -1 15 C-2.971 11.984 -3.199 9.908 -2.75 6.375 C-2.662 5.599 -2.575 4.823 -2.484 4.023 C-2 2 -2 2 0 0 Z " fill="#726062" transform="translate(202,179)"/>
<path d="M0 0 C2.375 -0.188 2.375 -0.188 5 0 C5.66 0.99 6.32 1.98 7 3 C6.67 3.99 6.34 4.98 6 6 C5.01 5.67 4.02 5.34 3 5 C3 4.01 3 3.02 3 2 C2.01 1.34 1.02 0.68 0 0 Z M-2 3 C-1.34 3.66 -0.68 4.32 0 5 C-0.66 5 -1.32 5 -2 5 C-2 4.34 -2 3.68 -2 3 Z M0 5 C3 6 3 6 3 6 Z M7 7 C7.66 7.66 8.32 8.32 9 9 C8.34 9 7.68 9 7 9 C7 8.34 7 7.68 7 7 Z " fill="#F0E9E9" transform="translate(171,130)"/>
<path d="M0 0 C0.66 0.33 1.32 0.66 2 1 C1.734 1.496 1.469 1.993 1.195 2.504 C-1.116 6.95 -2.785 11.139 -4 16 C-6 13 -6 13 -5.645 10.879 C-2.863 3.136 -2.863 3.136 0 0 Z " fill="#4C1F21" transform="translate(109,164)"/>
<path d="M0 0 C0.99 0.33 1.98 0.66 3 1 C1.928 1.743 0.855 2.485 -0.25 3.25 C-3.109 5.285 -5.608 7.417 -8 10 C-6.569 4.99 -4.17 2.894 0 0 Z M-10 10 C-9.34 10.33 -8.68 10.66 -8 11 C-8.99 12.65 -9.98 14.3 -11 16 C-11.33 15.34 -11.66 14.68 -12 14 C-11.062 11.875 -11.062 11.875 -10 10 Z " fill="#684D4F" transform="translate(269,152)"/>
<path d="M0 0 C1.134 0.021 2.269 0.041 3.438 0.062 C3.438 0.722 3.438 1.382 3.438 2.062 C0.562 2.688 0.562 2.688 -2.562 3.062 C-3.222 2.403 -3.882 1.743 -4.562 1.062 C-3.562 0.062 -3.562 0.062 0 0 Z M-1.562 3.062 C0.417 3.558 0.417 3.558 2.438 4.062 C2.107 5.053 1.778 6.042 1.438 7.062 C0.118 6.732 -1.202 6.403 -2.562 6.062 C-2.232 5.072 -1.903 4.083 -1.562 3.062 Z " fill="#BAB2B3" transform="translate(172.5625,127.9375)"/>
<path d="M0 0 C3.379 1.398 5.15 2.829 7 6 C7.688 9.25 7.688 9.25 8 12 C7.01 11.67 6.02 11.34 5 11 C4.28 9.019 3.62 7.015 3 5 C2.044 3.308 1.056 1.632 0 0 Z " fill="#614143" transform="translate(135,105)"/>
<path d="M0 0 C2.97 1.98 2.97 1.98 6 4 C5.34 4.66 4.68 5.32 4 6 C3.352 8.571 3.352 8.571 3 11 C2.67 11 2.34 11 2 11 C0.577 7.177 -0.24 4.087 0 0 Z " fill="#C3AEAE" transform="translate(136,49)"/>
<path d="M0 0 C2.81 0.301 4.057 1.047 6.25 2.875 C8.834 7.488 8.326 11.825 8 17 C7.67 17 7.34 17 7 17 C6.986 16.325 6.972 15.649 6.957 14.953 C6.792 9.122 6.792 9.122 3.5 4.562 C2.675 4.047 1.85 3.531 1 3 C0.67 2.01 0.34 1.02 0 0 Z " fill="#5F3F41" transform="translate(121,150)"/>
<path d="M0 0 C2.72 1.019 3.821 1.691 5.301 4.242 C5.635 5.111 5.969 5.98 6.312 6.875 C6.659 7.739 7.006 8.602 7.363 9.492 C8.036 12.142 7.915 13.462 7 16 C5.828 13.711 4.663 11.419 3.5 9.125 C3.166 8.474 2.832 7.823 2.488 7.152 C0 2.227 0 2.227 0 0 Z " fill="#532C2E" transform="translate(224,34)"/>
<path d="M0 0 C0.557 0.227 1.114 0.454 1.688 0.688 C-0.842 3.779 -3.537 4.597 -7.312 5.688 C-7.312 4.697 -7.312 3.707 -7.312 2.688 C-3.286 -0.444 -3.286 -0.444 0 0 Z M-13.312 8.688 C-12.983 9.348 -12.653 10.008 -12.312 10.688 C-12.972 10.358 -13.632 10.027 -14.312 9.688 C-13.983 9.358 -13.653 9.027 -13.312 8.688 Z " fill="#61393B" transform="translate(78.3125,21.3125)"/>
<path d="M0 0 C0.99 0.99 1.98 1.98 3 3 C2.01 2.67 1.02 2.34 0 2 C0 1.34 0 0.68 0 0 Z M14 1 C14.66 1.66 15.32 2.32 16 3 C12.911 5.059 12.291 5.239 8.812 5.125 C6.925 5.063 6.925 5.063 5 5 C7.937 3.477 10.917 2.199 14 1 Z M3 3 C5 4 5 4 5 4 Z " fill="#EFE8E8" transform="translate(169,188)"/>
<path d="M0 0 C0.99 0.495 0.99 0.495 2 1 C1.01 1.495 1.01 1.495 0 2 C0 1.34 0 0.68 0 0 Z M3 2 C3.66 2 4.32 2 5 2 C6.625 4 6.625 4 8 6 C6.35 6 4.7 6 3 6 C2.67 5.01 2.34 4.02 2 3 C2.33 2.67 2.66 2.34 3 2 Z M9 7 C10.65 8.65 12.3 10.3 14 12 C12.062 11.188 12.062 11.188 10 10 C9.67 9.01 9.34 8.02 9 7 Z " fill="#AE6466" transform="translate(122,36)"/>
<path d="M0 0 C0.66 0.66 1.32 1.32 2 2 C1.34 2 0.68 2 0 2 C0 1.34 0 0.68 0 0 Z M6 4 C7.65 5.65 9.3 7.3 11 9 C10.01 9 9.02 9 8 9 C6.312 7 6.312 7 5 5 C5.33 4.67 5.66 4.34 6 4 Z " fill="#5D3D3F" transform="translate(85,102)"/>
<path d="M0 0 C0.33 0.99 0.66 1.98 1 3 C2.98 3 4.96 3 7 3 C6.01 4.485 6.01 4.485 5 6 C3.055 6.293 3.055 6.293 0.875 6.188 C-0.404 6.126 -1.683 6.064 -3 6 C-2.01 4.02 -1.02 2.04 0 0 Z " fill="#E0D1D1" transform="translate(176,182)"/>
<path d="M0 0 C0.66 0 1.32 0 2 0 C1.67 3.63 1.34 7.26 1 11 C1.99 11.66 2.98 12.32 4 13 C2.35 13.33 0.7 13.66 -1 14 C-0.67 9.38 -0.34 4.76 0 0 Z " fill="#48181A" transform="translate(94,179)"/>
<path d="M0 0 C2 1 2 1 2 1 Z M-5 1 C-3.563 0.946 -2.125 0.907 -0.688 0.875 C0.113 0.852 0.914 0.829 1.738 0.805 C4 1 4 1 7 3 C3.95 4.525 1.358 4.236 -2 4 C-3.723 2.484 -3.723 2.484 -5 1 Z " fill="#542A2C" transform="translate(198,94)"/>
<path d="M0 0 C2.31 1.65 4.62 3.3 7 5 C6.01 5.495 6.01 5.495 5 6 C3.293 4.719 1.626 3.382 0 2 C0 1.34 0 0.68 0 0 Z M7 6 C7.66 6 8.32 6 9 6 C9 6.66 9 7.32 9 8 C8.34 8 7.68 8 7 8 C7 7.34 7 6.68 7 6 Z M10 7 C11.32 7.66 12.64 8.32 14 9 C12.515 9.99 12.515 9.99 11 11 C10.34 10.01 9.68 9.02 9 8 C9.33 7.67 9.66 7.34 10 7 Z " fill="#F1EAEA" transform="translate(183,94)"/>
<path d="M0 0 C0.33 0.66 0.66 1.32 1 2 C0.67 2.66 0.34 3.32 0 4 C-0.25 7 -0.25 7 0 10 C0.66 10.66 1.32 11.32 2 12 C-1.875 11.125 -1.875 11.125 -3 10 C-3.473 3.611 -3.473 3.611 -1.5 1.062 C-1.005 0.712 -0.51 0.361 0 0 Z " fill="#634749" transform="translate(205,157)"/>
<path d="M0 0 C0.66 0.66 1.32 1.32 2 2 C1.977 5.258 1.977 5.258 1.625 9.125 C1.514 10.406 1.403 11.688 1.289 13.008 C1.194 13.995 1.098 14.983 1 16 C0.67 16 0.34 16 0 16 C-0.194 13.709 -0.38 11.417 -0.562 9.125 C-0.719 7.211 -0.719 7.211 -0.879 5.258 C-1 2 -1 2 0 0 Z " fill="#FFFFFF" transform="translate(162,120)"/>
<path d="M0 0 C4.389 0.51 7.337 1.522 11 4 C10.01 4.495 10.01 4.495 9 5 C6.836 4.223 6.836 4.223 4.375 3.062 C3.558 2.682 2.74 2.302 1.898 1.91 C1.272 1.61 0.645 1.309 0 1 C0 0.67 0 0.34 0 0 Z M11 5 C12.32 5.33 13.64 5.66 15 6 C14.01 6.33 13.02 6.66 12 7 C11.67 6.34 11.34 5.68 11 5 Z " fill="#DCD1D1" transform="translate(118,131)"/>
<path d="M0 0 C1.65 0.33 3.3 0.66 5 1 C4.67 2.32 4.34 3.64 4 5 C3.01 5 2.02 5 1 5 C0.34 4.01 -0.32 3.02 -1 2 C-0.67 1.34 -0.34 0.68 0 0 Z " fill="#E5D7D7" transform="translate(178,123)"/>
<path d="M0 0 C-2.773 3.081 -5.063 4.688 -9 6 C-9.66 5.34 -10.32 4.68 -11 4 C-9.738 3.133 -8.465 2.282 -7.188 1.438 C-6.48 0.962 -5.772 0.486 -5.043 -0.004 C-3 -1 -3 -1 0 0 Z " fill="#583032" transform="translate(171,21)"/>
<path d="M0 0 C0.557 0.289 1.114 0.578 1.688 0.875 C4.085 2.041 6.516 3.034 9 4 C8.01 5.485 8.01 5.485 7 7 C4.133 5.715 2.024 4.429 0 2 C0 1.34 0 0.68 0 0 Z " fill="#ECE4E4" transform="translate(141,30)"/>
<path d="M0 0 C0.99 0.33 1.98 0.66 3 1 C2.01 1.33 1.02 1.66 0 2 C-0.684 3.325 -1.35 4.659 -2 6 C-3.485 6.99 -3.485 6.99 -5 8 C-4.67 6.35 -4.34 4.7 -4 3 C-3.34 3 -2.68 3 -2 3 C-2 2.34 -2 1.68 -2 1 C-1.34 0.67 -0.68 0.34 0 0 Z " fill="#522527" transform="translate(69,178)"/>
<path d="M0 0 C0.33 0 0.66 0 1 0 C1.125 6.625 1.125 6.625 0 10 C-0.99 9.67 -1.98 9.34 -3 9 C-2.01 6.03 -1.02 3.06 0 0 Z " fill="#491A1C" transform="translate(141,124)"/>
<path d="M0 0 C7.483 6.15 7.483 6.15 10 10 C6.174 8.441 3.749 6.046 1 3 C0.67 2.01 0.34 1.02 0 0 Z " fill="#48191B" transform="translate(170,70)"/>
<path d="M0 0 C1.65 1.65 3.3 3.3 5 5 C4.01 5 3.02 5 2 5 C1.34 4.34 0.68 3.68 0 3 C0 2.01 0 1.02 0 0 Z M6 7 C6.66 7.66 7.32 8.32 8 9 C7.34 9 6.68 9 6 9 C6 8.34 6 7.68 6 7 Z " fill="#C79B9C" transform="translate(152,65)"/>
<path d="M0 0 C0.66 1.32 1.32 2.64 2 4 C1.01 3.67 0.02 3.34 -1 3 C-2.394 2.933 -3.792 2.915 -5.188 2.938 C-6.446 2.958 -7.704 2.979 -9 3 C-9 2.34 -9 1.68 -9 1 C-6.043 -0.478 -3.258 -0.06 0 0 Z " fill="#593638" transform="translate(102,150)"/>
<path d="M0 0 C0.66 0 1.32 0 2 0 C1.744 1.461 1.47 2.919 1.188 4.375 C1.037 5.187 0.886 5.999 0.73 6.836 C0 9 0 9 -3 11 C-2.449 7.051 -1.611 3.651 0 0 Z " fill="#7D7C80" transform="translate(154,133)"/>
<path d="M0 0 C0.99 0.33 1.98 0.66 3 1 C1.68 1.33 0.36 1.66 -1 2 C-0.67 1.34 -0.34 0.68 0 0 Z M-2 2 C-1.34 2.33 -0.68 2.66 0 3 C-0.375 5.438 -0.375 5.438 -1 8 C-1.99 8.495 -1.99 8.495 -3 9 C-3.043 7 -3.041 5 -3 3 C-2.67 2.67 -2.34 2.34 -2 2 Z " fill="#593435" transform="translate(74,127)"/>
<path d="M0 0 C0.99 0.33 1.98 0.66 3 1 C2.288 1.897 2.288 1.897 1.562 2.812 C-0.165 5.004 -0.165 5.004 -1 8 C-1.66 8 -2.32 8 -3 8 C-3.188 5.125 -3.188 5.125 -3 2 C-2.01 1.34 -1.02 0.68 0 0 Z " fill="#7D7C80" transform="translate(99,86)"/>
<path d="M0 0 C1.98 0.99 3.96 1.98 6 3 C5.67 3.99 5.34 4.98 5 6 C3.35 6 1.7 6 0 6 C0 4.02 0 2.04 0 0 Z " fill="#48181A" transform="translate(190,24)"/>
<path d="M0 0 C1.65 0 3.3 0 5 0 C5.33 0.99 5.66 1.98 6 3 C5 4 5 4 3.152 4.098 C1.102 4.065 -0.949 4.033 -3 4 C-1.68 3.67 -0.36 3.34 1 3 C0.67 2.01 0.34 1.02 0 0 Z " fill="#BCB8B8" transform="translate(176,193)"/>
<path d="M0 0 C1.32 0 2.64 0 4 0 C4 3.63 4 7.26 4 11 C3.67 11 3.34 11 3 11 C2.512 9.014 2.023 7.029 1.535 5.043 C1.09 3.343 0.556 1.667 0 0 Z " fill="#51292C" transform="translate(146,151)"/>
<path d="M0 0 C1.32 0 2.64 0 4 0 C3.67 1.65 3.34 3.3 3 5 C1.68 4.67 0.36 4.34 -1 4 C-0.67 2.68 -0.34 1.36 0 0 Z " fill="#811618" transform="translate(181,132)"/>
<path d="M0 0 C2.468 1.152 4.048 2.048 6 4 C4.35 4.66 2.7 5.32 1 6 C0.34 4.35 -0.32 2.7 -1 1 C-0.67 0.67 -0.34 0.34 0 0 Z " fill="#FFFFFF" transform="translate(176,126)"/>
<path d="M0 0 C0.66 0.33 1.32 0.66 2 1 C1.34 1.66 0.68 2.32 0 3 C0 2.01 0 1.02 0 0 Z M5 5 C5.66 5.66 6.32 6.32 7 7 C6.01 7 5.02 7 4 7 C4.33 6.34 4.66 5.68 5 5 Z M6 8 C6.66 8 7.32 8 8 8 C7.67 8.66 7.34 9.32 7 10 C6.67 9.34 6.34 8.68 6 8 Z " fill="#48181A" transform="translate(82,96)"/>
<path d="M0 0 C2.622 1.049 3.794 1.649 5.25 4.125 C5.498 4.744 5.745 5.362 6 6 C5.34 6.66 4.68 7.32 4 8 C0 2.25 0 2.25 0 0 Z " fill="#542D2F" transform="translate(64,74)"/>
<path d="M0 0 C-0.33 0.99 -0.66 1.98 -1 3 C-4.562 4.188 -4.562 4.188 -8 5 C-8.33 4.34 -8.66 3.68 -9 3 C-2.25 0 -2.25 0 0 0 Z " fill="#CFC1C1" transform="translate(189,24)"/>
<path d="M0 0 C1.65 0 3.3 0 5 0 C4.188 2.438 4.188 2.438 3 5 C2.01 5.33 1.02 5.66 0 6 C0.186 5.381 0.371 4.762 0.562 4.125 C1.237 1.958 1.237 1.958 0 0 Z M-2 6 C0 7 0 7 0 7 Z " fill="#966365" transform="translate(181,184)"/>
<path d="M0 0 C0.33 0 0.66 0 1 0 C1 2.64 1 5.28 1 8 C0.01 8 -0.98 8 -2 8 C-2.125 5.125 -2.125 5.125 -2 2 C-1.34 1.34 -0.68 0.68 0 0 Z " fill="#851013" transform="translate(185,176)"/>
<path d="M0 0 C0.688 1.688 0.688 1.688 1 4 C-1.262 8.631 -1.262 8.631 -4 10 C-3.524 8.52 -3.044 7.041 -2.562 5.562 C-2.296 4.739 -2.029 3.915 -1.754 3.066 C-1 1 -1 1 0 0 Z " fill="#614345" transform="translate(276,179)"/>
<path d="M0 0 C0.99 0.33 1.98 0.66 3 1 C2.01 1.495 2.01 1.495 1 2 C0.01 3.485 0.01 3.485 -1 5 C-3.125 6.188 -3.125 6.188 -5 7 C-3.75 3.347 -3.329 2.219 0 0 Z " fill="#D6CDCE" transform="translate(115,160)"/>
<path d="M0 0 C2.886 0.398 3.822 0.79 5.75 3.062 C6.162 3.702 6.575 4.341 7 5 C6.67 5.66 6.34 6.32 6 7 C1.125 3.375 1.125 3.375 0 0 Z " fill="#562E30" transform="translate(96,111)"/>
<path d="M0 0 C1.125 1.5 1.125 1.5 2 4 C1.576 6.777 0.811 9.296 0 12 C-0.33 12 -0.66 12 -1 12 C-1.027 10.188 -1.046 8.375 -1.062 6.562 C-1.074 5.553 -1.086 4.544 -1.098 3.504 C-1 1 -1 1 0 0 Z " fill="#4B1D1F" transform="translate(60,41)"/>
<path d="M0 0 C0.33 1.65 0.66 3.3 1 5 C-1.468 3.848 -3.048 2.952 -5 1 C-3 0 -3 0 0 0 Z M-3 6 C-2.34 6.33 -1.68 6.66 -1 7 C-1.99 7 -2.98 7 -4 7 C-3.67 6.67 -3.34 6.34 -3 6 Z " fill="#866B6C" transform="translate(137,183)"/>
<path d="M0 0 C2.475 0.495 2.475 0.495 5 1 C4.01 1.33 3.02 1.66 2 2 C1.34 1.34 0.68 0.68 0 0 Z M-3 1 C-2.01 1.33 -1.02 1.66 0 2 C-1.375 3.5 -1.375 3.5 -3 5 C-3.66 5 -4.32 5 -5 5 C-4.34 3.68 -3.68 2.36 -3 1 Z " fill="#4B1D1F" transform="translate(117,150)"/>
<path d="M0 0 C1.65 1.65 3.3 3.3 5 5 C1.092 5 -0.116 3.494 -3 1 C-2.01 0.67 -1.02 0.34 0 0 Z " fill="#A3999B" transform="translate(186,80)"/>
<path d="M0 0 C6.152 0.586 6.152 0.586 8 1 C8.33 1.66 8.66 2.32 9 3 C6.03 2.67 3.06 2.34 0 2 C0 1.34 0 0.68 0 0 Z " fill="#633F40" transform="translate(202,18)"/>
<path d="M0 0 C2.25 0.25 2.25 0.25 4 1 C1.688 3.062 1.688 3.062 -1 5 C-1.99 4.67 -2.98 4.34 -4 4 C-2.25 1.938 -2.25 1.938 0 0 Z " fill="#582E30" transform="translate(60,187)"/>
<path d="M0 0 C1.312 3.937 0.243 6.125 -1 10 C-1.33 10 -1.66 10 -2 10 C-2.195 3.945 -2.195 3.945 -2 2 C-1.34 1.34 -0.68 0.68 0 0 Z " fill="#5A3A3C" transform="translate(202,179)"/>
<path d="M0 0 C0.33 0 0.66 0 1 0 C1 1.65 1 3.3 1 5 C-0.98 5.33 -2.96 5.66 -5 6 C-3.358 3.979 -1.691 1.98 0 0 Z " fill="#573335" transform="translate(102,187)"/>
<path d="M0 0 C0.99 0.99 1.98 1.98 3 3 C2.67 3.99 2.34 4.98 2 6 C-0.062 6.688 -0.062 6.688 -2 7 C-1.67 6.402 -1.34 5.804 -1 5.188 C0.208 2.946 0.208 2.946 0 0 Z " fill="#642E30" transform="translate(86,186)"/>
<path d="M0 0 C3.27 0.564 4.826 1.5 7 4 C5.35 4 3.7 4 2 4 C1.34 2.68 0.68 1.36 0 0 Z " fill="#664244" transform="translate(178,89)"/>
<path d="M0 0 C2.625 0.938 2.625 0.938 5 2 C5 2.66 5 3.32 5 4 C4.01 4.33 3.02 4.66 2 5 C1.67 4.34 1.34 3.68 1 3 C0.01 3 -0.98 3 -2 3 C-2 2.34 -2 1.68 -2 1 C-1.34 0.67 -0.68 0.34 0 0 Z " fill="#E5DCDC" transform="translate(199,36)"/>
<path d="M0 0 C0.66 0.66 1.32 1.32 2 2 C1 3 1 3 -2.562 3.062 C-3.697 3.042 -4.831 3.021 -6 3 C-5.67 2.34 -5.34 1.68 -5 1 C-2.562 0.25 -2.562 0.25 0 0 Z " fill="#491A1C" transform="translate(83,190)"/>
<path d="M0 0 C0 0.66 0 1.32 0 2 C-2.875 2.625 -2.875 2.625 -6 3 C-6.66 2.34 -7.32 1.68 -8 1 C-5.237 0.403 -2.84 0 0 0 Z " fill="#840D0F" transform="translate(181,188)"/>
<path d="M0 0 C0.66 0.33 1.32 0.66 2 1 C0.755 4.736 -0.634 5.188 -4 7 C-2.796 4.506 -1.546 2.319 0 0 Z " fill="#4D2123" transform="translate(135,185)"/>
<path d="M0 0 C0.66 0.33 1.32 0.66 2 1 C1.01 2.98 0.02 4.96 -1 7 C-1.66 6.67 -2.32 6.34 -3 6 C-1.125 1.125 -1.125 1.125 0 0 Z " fill="#573032" transform="translate(109,164)"/>
<path d="M0 0 C2.375 -0.188 2.375 -0.188 5 0 C5.66 0.99 6.32 1.98 7 3 C6.01 3.33 5.02 3.66 4 4 C3.67 3.34 3.34 2.68 3 2 C2.01 1.34 1.02 0.68 0 0 Z " fill="#EFE8E8" transform="translate(171,130)"/>
<path d="M0 0 C-0.66 0 -1.32 0 -2 0 C-2.33 0.66 -2.66 1.32 -3 2 C-5.062 3.125 -5.062 3.125 -7 4 C-6.625 2.062 -6.625 2.062 -6 0 C-3.509 -1.245 -2.589 -0.777 0 0 Z " fill="#E4D8D8" transform="translate(136,122)"/>
<path d="M0 0 C1.938 0.75 1.938 0.75 4 2 C4.75 4.125 4.75 4.125 5 6 C3.062 5.25 3.062 5.25 1 4 C0.25 1.875 0.25 1.875 0 0 Z " fill="#532A2C" transform="translate(224,34)"/>
<path d="M0 0 C0.99 0.33 1.98 0.66 3 1 C2.67 2.98 2.34 4.96 2 7 C1.67 7 1.34 7 1 7 C0.67 4.69 0.34 2.38 0 0 Z " fill="#48181A" transform="translate(101,153)"/>
<path d="M0 0 C0.66 0.33 1.32 0.66 2 1 C1.427 3.867 1.139 4.861 -1 7 C-1.043 5 -1.041 3 -1 1 C-0.67 0.67 -0.34 0.34 0 0 Z " fill="#900A0D" transform="translate(179,143)"/>
<path d="M0 0 C1.98 0 3.96 0 6 0 C6 0.99 6 1.98 6 3 C3 3 3 3 1.312 1.5 C0.879 1.005 0.446 0.51 0 0 Z " fill="#5E3436" transform="translate(170,84)"/>
<path d="M0 0 C2 0 2 0 3.5 1.375 C3.995 1.911 4.49 2.448 5 3 C5.66 3.66 6.32 4.32 7 5 C4.03 4.505 4.03 4.505 1 4 C0.67 2.68 0.34 1.36 0 0 Z " fill="#553032" transform="translate(180,79)"/>
<path d="M0 0 C0.99 0.495 0.99 0.495 2 1 C1.01 1.495 1.01 1.495 0 2 C0 1.34 0 0.68 0 0 Z M3 2 C3.66 2 4.32 2 5 2 C5.33 3.32 5.66 4.64 6 6 C5.01 6 4.02 6 3 6 C2.67 5.01 2.34 4.02 2 3 C2.33 2.67 2.66 2.34 3 2 Z " fill="#B57D7E" transform="translate(122,36)"/>
<path d="M0 0 C0.66 0 1.32 0 2 0 C1.67 1.65 1.34 3.3 1 5 C0.01 5.33 -0.98 5.66 -2 6 C-1.34 4.02 -0.68 2.04 0 0 Z " fill="#5B2C2E" transform="translate(62,34)"/>
<path d="M0 0 C0.66 0 1.32 0 2 0 C2.33 1.32 2.66 2.64 3 4 C1.515 4.99 1.515 4.99 0 6 C0 4.02 0 2.04 0 0 Z " fill="#593436" transform="translate(35,136)"/>
<path d="M0 0 C1.32 1.65 2.64 3.3 4 5 C3.01 5 2.02 5 1 5 C0.34 3.68 -0.32 2.36 -1 1 C-0.67 0.67 -0.34 0.34 0 0 Z " fill="#A5A4A5" transform="translate(166,187)"/>
<path d="M0 0 C1.32 0 2.64 0 4 0 C4 0.99 4 1.98 4 3 C2.68 3 1.36 3 0 3 C0 2.01 0 1.02 0 0 Z " fill="#7C5556" transform="translate(179,124)"/>
<path d="M0 0 C0.99 0.33 1.98 0.66 3 1 C2.34 1.66 1.68 2.32 1 3 C-1.125 2.625 -1.125 2.625 -3 2 C-2.01 1.34 -1.02 0.68 0 0 Z " fill="#491A1C" transform="translate(213,91)"/>
<path d="M0 0 C0.99 0 1.98 0 3 0 C3 0.66 3 1.32 3 2 C2.01 2.495 2.01 2.495 1 3 C0.34 3.99 -0.32 4.98 -1 6 C-1.043 4.334 -1.041 2.666 -1 1 C-0.67 0.67 -0.34 0.34 0 0 Z " fill="#7E5759" transform="translate(196,65)"/>
<path d="M0 0 C1.32 0 2.64 0 4 0 C3.67 0.99 3.34 1.98 3 3 C2.01 3 1.02 3 0 3 C0 2.01 0 1.02 0 0 Z " fill="#754B4D" transform="translate(171,132)"/>
<path d="M0 0 C0.33 0.66 0.66 1.32 1 2 C0.67 2.99 0.34 3.98 0 5 C-0.99 4.67 -1.98 4.34 -3 4 C-2.01 2.68 -1.02 1.36 0 0 Z " fill="#4B1E20" transform="translate(141,129)"/>
<path d="M0 0 C0.99 0 1.98 0 3 0 C3 1.32 3 2.64 3 4 C2.34 4 1.68 4 1 4 C0.67 2.68 0.34 1.36 0 0 Z " fill="#E6D5D5" transform="translate(167,184)"/>
<path d="M0 0 C0.33 1.32 0.66 2.64 1 4 C0.01 4 -0.98 4 -2 4 C-1.34 2.68 -0.68 1.36 0 0 Z " fill="#53282A" transform="translate(103,180)"/>
<path d="M0 0 C0.66 0.33 1.32 0.66 2 1 C2 1.99 2 2.98 2 4 C1.01 4 0.02 4 -1 4 C-0.67 2.68 -0.34 1.36 0 0 Z " fill="#B40307" transform="translate(181,132)"/>
<path d="M0 0 C-1.98 0.99 -1.98 0.99 -4 2 C-4.66 1.34 -5.32 0.68 -6 0 C-3.509 -1.245 -2.589 -0.777 0 0 Z " fill="#48181A" transform="translate(180,19)"/>
<path d="M0 0 C0.33 0.99 0.66 1.98 1 3 C0.34 3.66 -0.32 4.32 -1 5 C-1.33 4.01 -1.66 3.02 -2 2 C-1.34 1.34 -0.68 0.68 0 0 Z " fill="#7B5657" transform="translate(105,175)"/>
<path d="M0 0 C1.32 0.33 2.64 0.66 4 1 C2.515 1.99 2.515 1.99 1 3 C0.67 2.01 0.34 1.02 0 0 Z " fill="#EDE5E5" transform="translate(193,102)"/>
<path d="M0 0 C0.66 0.33 1.32 0.66 2 1 C2 1.66 2 2.32 2 3 C1.01 2.67 0.02 2.34 -1 2 C-0.67 1.34 -0.34 0.68 0 0 Z " fill="#5B3537" transform="translate(90,97)"/>
<path d="M0 0 C0.66 0.66 1.32 1.32 2 2 C0.515 2.99 0.515 2.99 -1 4 C-0.67 2.68 -0.34 1.36 0 0 Z " fill="#B0ADAE" transform="translate(165,185)"/>
<path d="M0 0 C0.66 0.66 1.32 1.32 2 2 C0.515 2.99 0.515 2.99 -1 4 C-0.67 2.68 -0.34 1.36 0 0 Z " fill="#C39E9E" transform="translate(123,37)"/>
<path d="M0 0 C0.66 0 1.32 0 2 0 C1.67 0.99 1.34 1.98 1 3 C0.34 3 -0.32 3 -1 3 C-0.67 2.01 -0.34 1.02 0 0 Z " fill="#694244" transform="translate(62,34)"/>
</svg>